<svg width="394" height="394" xmlns="http://www.w3.org/2000/svg">
 <!-- Created with SVG Editor - http://github.com/mzalive/SVG Editor/ -->

 <g>
  <title>Layer 1</title>
  <metadata transform="matrix(0.017777779632144552,0,0,0.017777779632144552,0,0) ">Svg Vector Icons : http://www.onlinewebfonts.com/icon</metadata>
  <g fill="white" stroke="null" id="svg_12">
   <g stroke="null" transform="matrix(0.4024712891861305,0,0,0.4024712891861305,-6275.81287187903,-4327.301578178294) " id="svg_10">
    <path fill="#444444" stroke="null" id="svg_11" d="m16412.89249,10876.526017c-89.2,-75.7 -205,-124.7 -329.7,-124.7c-271.7,0 -490,218.3 -490,490l89.1,0c0,-222.7 178.2,-400.9 400.9,-400.9c102.5,0 196,35.7 262.8,98l-75.7,71.3l267.3,49l-40.1,-267.3l-84.6,84.6zm-650.4,735c89,75.8 200.4,120.3 320.7,120.3c271.7,0 490,-218.3 490,-490l-89.1,0c0,222.7 -178.2,400.9 -400.9,400.9c-98,0 -187.1,-35.7 -253.9,-89.1l84.7,-80.2l-267.3,-49l40.1,267.3l75.7,-80.2z"/>
   </g>
  </g>
 </g>
</svg>