<svg height="512" viewBox="0 0 52 60" width="512" xmlns="http://www.w3.org/2000/svg"><g id="083---Up-Arrows" transform="translate(0 -1)"><path id="Shape" d="m52 20.444c-.000729-.6433477-.3083184-1.2477535-.828-1.627l-23.999-17.435c-.6984462-.5101007-1.6465538-.5101007-2.345 0l-24 17.435c-.51968159.3792465-.82727103.9836523-.828 1.627v14.6c-.00206561.7513851.41718841 1.4405296 1.08541059 1.7841324.66822218.3436029 1.47264955.283681 2.08258941-.1551324l22.824-16.595 22.84 16.592c.6100859.4389202 1.4147391.4987587 2.0830364.1549063.6682973-.3438525 1.0874063-1.0333414 1.0849636-1.7849063zm-26-17.444 24 17.444v6.539c-.01.1 1.736 1.326-22.829-16.52-.6983424-.51041866-1.6466576-.51041866-2.345 0l-22.826 16.581v-6.609zm-24 32.04v-6.007c.41953911.0049941.82986119-.123144 1.172-.366l21.828-15.867v5.571c-.427.258-2.817 2.014-23 16.669zm25-16.664v-5.567l21.828 15.858c.3409536.2470622.7509449.3806942 1.172.382v6c-25.389-18.449-22.6-16.439-23-16.673z"/><path id="Shape" d="m27.171 25.329c-.6979225-.5094448-1.6450775-.5094448-2.343 0l-24 17.436c-.52025048.3796622-.82790915.9849472-.828 1.629v14.6c-.00206561.7513851.41718841 1.4405296 1.08541059 1.7841324.66822218.3436029 1.47264955.283681 2.08258941-.1551324l22.824-16.59 22.84 16.589c.6105243.4392424 1.4158559.4988314 2.0843792.1542296s1.0871967-1.0351252 1.0836208-1.7872296v-14.595c-.00041-.6437003-.3080341-1.2485456-.828-1.628zm-1.171 1.618 24 17.447v6.538c-.01.1 1.775 1.355-22.831-16.522-.6984376-.5078631-1.6445624-.5078631-2.343 0l-22.826 16.582v-6.609zm-24 32.042v-6.007c.41953911.0049941.82986119-.123144 1.172-.366l21.828-15.863v5.571c-.417.245-3.325 2.376-23 16.665zm25-16.664v-5.568l21.828 15.859c.3407123.2477741.7507242.3821125 1.172.384v6c-19.715-14.326-22.582-16.43-23-16.675z"/></g></svg>