<svg width="433" height="400" xmlns="http://www.w3.org/2000/svg">
 <!-- Created with SVG Editor - http://github.com/mzalive/SVG Editor/ -->

 <g>
  <title>background</title>
  <rect fill="none" id="canvas_background" height="402" width="435" y="-1" x="-1"/>
  <g display="none" overflow="visible" y="0" x="0" height="100%" width="100%" id="canvasGrid">
   <rect fill="url(#gridpattern)" stroke-width="0" y="0" x="0" height="100%" width="100%"/>
  </g>
 </g>
 <g>
  <title>Layer 1</title>
  <g stroke="null" id="svg_14">
   <g stroke="null" transform="matrix(1.0374817209047629,0,0,1.0374817209047629,-4147.004758027508,-2859.203742395539) " id="svg_4">
    <path stroke="null" id="svg_6" fill="#ed5749" d="m4414.853706,2853.395586a96.154,96.154 0 0 1 -28.17,68l-117.38,117.38a76.981,76.981 0 0 1 -108.9,0l-117.38,-117.38a96.167,96.167 0 1 1 136,-136l35.83,35.83l35.83,-35.83a96.17,96.17 0 0 1 164.17,68z"/>
    <path stroke="null" id="svg_7" fill="#e5493d" d="m4297.183706,3010.895586l-27.88,27.88a76.614,76.614 0 0 1 -50.15,22.42c-0.04,-0.67 -0.05,-1.34 -0.05,-2.02a53.994,53.994 0 0 1 78.08,-48.28z"/>
    <path stroke="null" id="svg_8" fill="#e5493d" d="m4246.853706,2981.405586a71.733,71.733 0 0 1 -21.14,51.04l-27.15,27.15a76.625,76.625 0 0 1 -38.16,-20.82l-117.38,-117.38a95.482,95.482 0 0 1 -8.46,-9.68a72.193,72.193 0 0 1 69.84,18.65l9.62,9.62l9.61,-9.62a72.181,72.181 0 0 1 123.22,51.04z"/>
    <path stroke="null" id="svg_9" fill="#f9a239" d="m4114.018706,2962.612586l20.935,-20.933a56.18,56.18 0 0 1 39.722,-16.454a56.178,56.178 0 0 1 56.178,56.178a56.18,56.18 0 0 1 -16.454,39.722l-68.574,68.574a44.981,44.981 0 0 1 -63.614,0l-68.574,-68.574a56.18,56.18 0 0 1 -16.454,-39.722a56.178,56.178 0 0 1 56.178,-56.178a56.182,56.182 0 0 1 39.724,16.454l20.933,20.933z"/>
    <g stroke="null" id="svg_10" fill="#f49196">
     <path stroke="null" id="svg_11" d="m4337.13766,2914.350996l10.637522,-10.637522l11.311293,11.311293l-10.637522,10.637522l-11.311293,-11.311293z"/>
     <path stroke="null" id="svg_12" d="m4369.716706,2904.425586l-11.313,-11.319a56.167,56.167 0 0 0 -18.572,-91.75l6.044,-14.815a72.167,72.167 0 0 1 23.841,117.884z"/>
     <path stroke="null" id="svg_13" d="m4314.018706,3046.479586l14.14,-14.139a37.944,37.944 0 0 1 26.833,-11.115a37.948,37.948 0 0 1 37.947,37.947a37.944,37.944 0 0 1 -11.115,26.833l-46.32,46.32a30.386,30.386 0 0 1 -42.97,0l-46.321,-46.32a37.947,37.947 0 0 1 -11.114,-26.833a37.948,37.948 0 0 1 37.947,-37.947a37.944,37.944 0 0 1 26.833,11.115l14.14,14.139z"/>
    </g>
   </g>
  </g>
 </g>
</svg>