<svg width="395" height="400" xmlns="http://www.w3.org/2000/svg">
 <!-- Created with SVG Editor - http://github.com/mzalive/SVG Editor/ -->

 <g>
  <title>background</title>
  <rect fill="none" id="canvas_background" height="402" width="397" y="-1" x="-1"/>
  <g display="none" overflow="visible" y="0" x="0" height="100%" width="100%" id="canvasGrid">
   <rect fill="url(#gridpattern)" stroke-width="0" y="0" x="0" height="100%" width="100%"/>
  </g>
 </g>
 <g>
  <title>Layer 1</title>
  <g stroke="null" id="svg_28">
   <g stroke="null" transform="matrix(1.1908636572247175,0,0,1.1908636572247175,-4802.900059149739,-3311.6757468622004) " id="svg_5">
    <path stroke="null" id="svg_6" fill="#FF5A5A" d="m4526.373489,2926.418117l-38.548,0l0,-38.548c0,-4.832 -3.916,-8.75 -8.751,-8.75l-27.904,0c-4.834,0 -8.75,3.918 -8.75,8.75l0,38.548l-38.548,0c-4.832,0 -8.75,3.917 -8.75,8.751l0,27.904c0,4.834 3.918,8.751 8.75,8.751l38.547,0l0,38.547c0,4.833 3.917,8.75 8.751,8.75l27.904,0c4.834,0 8.751,-3.917 8.751,-8.75l0,-38.547l38.548,0c4.832,0 8.75,-3.917 8.75,-8.751l0,-27.904c0,-4.834 -3.918,-8.751 -8.75,-8.751z"/>
    <path stroke="null" id="svg_7" fill="#FF5A5A" d="m4354.557489,2935.832117c-0.963,-7.236 -7.724,-13.16 -15.026,-13.16l-120.856,0c-7.301,0 -13.276,5.974 -13.276,13.277l0,28.583c0,7.302 5.974,13.277 13.276,13.277l59.675,0c6.875,0 11.537,4.701 9.256,10.663c-7.47,16.739 -19.573,30.949 -34.651,41.066l0,0l0,0l0,0c-15.4,10.332 -33.89,16.413 -53.83,16.413c-41.271,0 -76.414,-25.863 -90.352,-62.229l0.001,0c-4.123,-10.761 -6.478,-22.392 -6.478,-34.601c0,-12.339 2.396,-24.095 6.606,-34.947l-0.001,-0.001c14.03,-36.181 49.084,-61.88 90.221,-61.88c20.099,0 38.719,6.176 54.174,16.679l0.458,0.302c6.18,3.888 14.323,3.747 19.309,-1.59l23.588,-25.165c4.984,-5.336 4.013,-12.896 -2.158,-16.8l-0.313,-0.286c-26.318,-20.26 -59.277,-32.313 -95.058,-32.313c-59.747,0 -111.625,33.603 -137.829,82.925l0.001,0.001c-11.583,21.803 -18.171,46.665 -18.171,73.075c0,26.531 6.643,51.504 18.324,73.378l-0.001,0c26.259,49.16 78.051,82.621 137.676,82.621c38.721,0 74.117,-14.138 101.391,-37.492l0.001,0c33.41,-28.615 54.609,-71.072 54.609,-118.508c0,-9.026 -0.566,-13.288 -0.566,-13.288z"/>
   </g>
   <path stroke="null" id="svg_8" d="m531.066839,295.594551l-33.229859,0c-12.312339,0 -22.329884,-10.016354 -22.329884,-22.328694l0,-33.996776l-33.995585,0c-12.312339,0 -22.328694,-10.017545 -22.328694,-22.329884l0,-33.229859c0,-12.312339 10.016354,-22.329884 22.328694,-22.329884l33.996776,0l0,-33.995585c0,-12.312339 10.016354,-22.328694 22.328694,-22.328694l33.229859,0c12.312339,0 22.329884,10.016354 22.329884,22.328694l0,33.996776l33.996776,0c12.312339,0 22.328694,10.017545 22.328694,22.329884l0,33.229859c0,12.312339 -10.016354,22.329884 -22.328694,22.329884l-33.996776,0l0,33.996776c0,12.311148 -10.016354,22.327503 -22.329884,22.327503zm-31.742471,-23.817273l30.255082,0l0,-44.416833c0,-6.575949 5.331497,-11.908637 11.908637,-11.908637l44.416833,0l0,-30.255082l-44.416833,0c-6.57714,0 -11.908637,-5.331497 -11.908637,-11.908637l0,-44.415642l-30.253891,0l0,44.416833c0,6.57714 -5.331497,11.908637 -11.908637,11.908637l-44.416833,0l0,30.255082l44.415642,0c6.57714,0 11.908637,5.332687 11.908637,11.908637l0,44.415642z"/>
   <path stroke="null" id="svg_9" d="m197.685749,327.544232c-26.244253,0 -51.434592,-7.944251 -72.846321,-22.975333c-20.891321,-14.664295 -36.752434,-34.989956 -45.869686,-58.777458c-5.642312,-14.729793 -8.502767,-30.027627 -8.502767,-45.467174c0,-15.637231 2.917616,-31.087496 8.67306,-45.923275c9.176795,-23.668415 25.047435,-43.883326 45.893504,-58.455924c21.370048,-14.939385 46.491317,-22.837192 72.648637,-22.837192c25.45352,0 50.048427,7.563175 71.141,21.873784l0.350114,0.231028c2.44127,1.496916 5.995999,2.001842 7.863273,0.002382l28.104382,-29.983565c0.507308,-0.544225 0.582332,-0.913392 0.572805,-0.982463c-0.009527,-0.067879 -0.173866,-0.407275 -0.820505,-0.815742c-0.589478,-0.37274 -1.14442,-0.796688 -1.661255,-1.267079c-30.519454,-23.363554 -67.002753,-35.708047 -105.545055,-35.708047c-64.465022,0 -123.329413,35.417476 -153.620221,92.431264c-13.244786,24.934303 -20.244682,53.095847 -20.244682,81.43602c0,28.485459 7.060631,56.761325 20.417357,81.773035c2.249541,4.212085 4.708675,8.390825 7.310712,12.420708c3.567828,5.525607 1.981597,12.897053 -3.54401,16.46369c-5.526798,3.567828 -12.897053,1.981597 -16.464881,-3.54401c-2.955724,-4.578871 -5.753062,-9.329226 -8.311037,-14.12007c-15.194229,-28.452114 -23.225414,-60.607815 -23.225414,-92.993352c0,-32.22358 7.964496,-64.247094 23.030112,-92.609894c34.432632,-64.812755 101.355597,-105.074664 174.652064,-105.074664c44.008366,0 85.663586,14.161751 120.464195,40.95261c0.141713,0.108369 0.281044,0.221501 0.416802,0.335824c5.978136,4.13706 9.881787,10.378377 10.76898,17.286577c0.933637,7.264268 -1.546932,14.659532 -6.804595,20.288744l-28.105573,29.984756c-9.454267,10.122341 -25.452329,11.740725 -38.024277,3.828627c-0.073834,-0.046444 -0.146476,-0.092887 -0.217928,-0.139331l-0.545416,-0.360832c-0.045253,-0.029772 -0.090506,-0.059543 -0.134568,-0.089315c-17.13891,-11.647837 -37.133511,-17.803412 -57.820003,-17.803412c-42.955643,0 -80.770328,25.940583 -96.337297,66.086979c-4.684858,12.081312 -7.060631,24.635396 -7.060631,37.313331c0,12.517168 2.33052,24.947403 6.927254,36.945354c15.233528,39.749838 54.004476,66.458528 96.474247,66.458528c20.506672,0 40.378614,-6.060305 57.469889,-17.52594c15.035845,-10.088997 27.099293,-23.786311 35.103088,-39.804618l-69.292784,0c-15.283544,0 -27.717352,-12.433807 -27.717352,-27.718542l0,-34.038456c0,-15.284735 12.433807,-27.719733 27.717352,-27.719733l27.694725,0c6.57714,0 11.908637,5.331497 11.908637,11.908637s-5.331497,11.908637 -11.908637,11.908637l-27.694725,0c-2.113783,0 -3.900078,1.787486 -3.900078,3.90246l0,34.038456c0,2.114974 1.786295,3.901269 3.900078,3.901269l71.064789,0c8.402734,0 15.924229,3.642852 20.120832,9.742456c3.814336,5.54347 4.551481,12.513595 2.023277,19.122889c-0.076215,0.201256 -0.159576,0.40013 -0.2477,0.596623c-9.755555,21.858302 -25.490437,40.5108 -45.504091,53.938978c-21.025889,14.10578 -45.486228,21.561777 -70.73492,21.561777z"/>
   <path stroke="null" id="svg_10" d="m291.166165,180.73456c-3.131971,0 -6.2044,-1.274224 -8.419406,-3.489231c-2.215006,-2.215006 -3.489231,-5.287435 -3.489231,-8.419406s1.274224,-6.2044 3.489231,-8.419406c2.215006,-2.215006 5.287435,-3.489231 8.419406,-3.489231s6.2044,1.274224 8.419406,3.489231c2.215006,2.215006 3.489231,5.287435 3.489231,8.419406s-1.274224,6.2044 -3.489231,8.419406c-2.215006,2.215006 -5.287435,3.489231 -8.419406,3.489231z"/>
   <path stroke="null" id="svg_11" d="m197.682177,398.007634c-31.384021,0 -61.394976,-7.143991 -89.201642,-21.23429c-5.866194,-2.972396 -8.212196,-10.139013 -5.2398,-16.004017c2.973587,-5.867385 10.139013,-8.212196 16.005208,-5.2398c24.438904,12.3826 50.828443,18.660834 78.435,18.660834c41.400375,0 81.530099,-14.839352 112.99748,-41.785024c38.684015,-33.128636 60.869805,-81.271681 60.869805,-132.08107c0,-9.594788 -0.570424,-14.255829 -0.575187,-14.301082c-0.351305,-2.643717 -3.367762,-5.286244 -6.082932,-5.286244l-23.708905,0c-6.57714,0 -11.908637,-5.331497 -11.908637,-11.908637s5.331497,-11.908637 11.908637,-11.908637l23.708905,0c14.71193,0 27.75665,11.423955 29.697758,26.008462c0.080979,0.604959 0.777634,6.184155 0.777634,17.396136c0,57.77475 -25.220111,112.510417 -69.193942,150.17148c-35.78188,30.63854 -81.413394,47.511887 -128.490616,47.511887z"/>
   <path stroke="null" id="svg_12" d="m72.447382,349.429924c-2.869981,0 -5.748299,-1.031288 -8.033566,-3.121254c-0.525171,-0.479918 -1.04796,-0.9646 -1.569558,-1.450472c-4.809898,-4.485983 -5.071888,-12.021769 -0.585905,-16.830476c4.487174,-4.809898 12.021769,-5.071888 16.831667,-0.585905c0.464437,0.432284 0.930065,0.863376 1.398074,1.292087c4.852769,4.43954 5.188593,11.971752 0.750244,16.824522c-2.348383,2.568693 -5.564906,3.871498 -8.790956,3.871498z"/>
   <g stroke="null" transform="matrix(1.1908636572247175,0,0,1.1908636572247175,-4802.900059149739,-3311.6757468622004) " id="svg_13"/>
   <g stroke="null" transform="matrix(1.1908636572247175,0,0,1.1908636572247175,-4802.900059149739,-3311.6757468622004) " id="svg_14"/>
   <g stroke="null" transform="matrix(1.1908636572247175,0,0,1.1908636572247175,-4802.900059149739,-3311.6757468622004) " id="svg_15"/>
   <g stroke="null" transform="matrix(1.1908636572247175,0,0,1.1908636572247175,-4802.900059149739,-3311.6757468622004) " id="svg_16"/>
   <g stroke="null" transform="matrix(1.1908636572247175,0,0,1.1908636572247175,-4802.900059149739,-3311.6757468622004) " id="svg_17"/>
   <g stroke="null" transform="matrix(1.1908636572247175,0,0,1.1908636572247175,-4802.900059149739,-3311.6757468622004) " id="svg_18"/>
   <g stroke="null" transform="matrix(1.1908636572247175,0,0,1.1908636572247175,-4802.900059149739,-3311.6757468622004) " id="svg_19"/>
   <g stroke="null" transform="matrix(1.1908636572247175,0,0,1.1908636572247175,-4802.900059149739,-3311.6757468622004) " id="svg_20"/>
   <g stroke="null" transform="matrix(1.1908636572247175,0,0,1.1908636572247175,-4802.900059149739,-3311.6757468622004) " id="svg_21"/>
   <g stroke="null" transform="matrix(1.1908636572247175,0,0,1.1908636572247175,-4802.900059149739,-3311.6757468622004) " id="svg_22"/>
   <g stroke="null" transform="matrix(1.1908636572247175,0,0,1.1908636572247175,-4802.900059149739,-3311.6757468622004) " id="svg_23"/>
   <g stroke="null" transform="matrix(1.1908636572247175,0,0,1.1908636572247175,-4802.900059149739,-3311.6757468622004) " id="svg_24"/>
   <g stroke="null" transform="matrix(1.1908636572247175,0,0,1.1908636572247175,-4802.900059149739,-3311.6757468622004) " id="svg_25"/>
   <g stroke="null" transform="matrix(1.1908636572247175,0,0,1.1908636572247175,-4802.900059149739,-3311.6757468622004) " id="svg_26"/>
   <g stroke="null" transform="matrix(1.1908636572247175,0,0,1.1908636572247175,-4802.900059149739,-3311.6757468622004) " id="svg_27"/>
  </g>
 </g>
</svg>