<svg width="0" height="0">

  <symbol fill="none" xmlns="http://www.w3.org/2000/svg" viewBox="0 0 8 12" id="arrow">
    <path d="M0 10.59L4.94467 6L0 1.41L1.52227 0L8 6L1.52227 12L0 10.59Z" fill="white"></path>
  </symbol>


  <symbol fill="none" xmlns="http://www.w3.org/2000/svg" viewBox="0 0 14 14" id="characteristics">
    <rect width="14" height="14" fill="black"></rect>
    <path d="M2.88753 4.46799C3.70784 4.46799 4.38049 3.80081 4.38049 2.97502C4.38049 2.14924 3.71331 1.48206 2.88753 1.48206C2.06174 1.48206 1.40002 2.15471 1.40002 2.97502C1.40002 3.79534 2.06721 4.46799 2.88753 4.46799ZM2.88753 2.05081C3.39612 2.05081 3.81721 2.46643 3.81721 2.98049C3.81721 3.49456 3.40159 3.91018 2.88753 3.91018C2.37346 3.91018 1.95784 3.49456 1.95784 2.98049C1.95784 2.46643 2.37893 2.05081 2.88753 2.05081Z" fill="white"></path>
    <path d="M4.65388 6.19613C4.50076 6.18519 4.36404 6.3055 4.3531 6.45863L4.12341 9.73441C4.12341 9.74535 4.11794 9.75082 4.11794 9.76175L3.91013 12.95C3.90466 13.0703 3.80076 13.1688 3.68044 13.1688H2.09451C1.97419 13.1688 1.87029 13.0758 1.86482 12.95L1.65701 9.76175C1.65154 9.64691 1.56951 9.543 1.46013 9.51019C1.39998 9.49378 1.22498 9.4391 1.19763 9.41175C1.17576 9.37894 1.16482 9.20394 1.15935 9.11644L0.967944 5.73675V5.73128C1.32341 5.62738 1.67341 5.51253 2.02888 5.39769C2.18748 5.58363 2.34607 5.7641 2.51013 5.95003L2.67966 6.14144C2.73435 6.2016 2.81091 6.23988 2.89294 6.23988C2.97497 6.23988 3.05154 6.20707 3.10622 6.14144L3.3031 5.91722C3.46169 5.73675 3.60935 5.56722 3.75701 5.39222L6.20701 5.94457C6.24529 5.9555 6.28904 5.9555 6.32732 5.94457L8.53669 5.49066C8.68982 5.45785 8.78826 5.31019 8.75544 5.15707C8.72263 5.00394 8.57497 4.9055 8.42185 4.93832L6.27263 5.38128L3.85544 4.83441C3.84451 4.82894 3.8281 4.82894 3.81716 4.82894C3.74607 4.82347 3.50544 4.818 3.35779 4.993C3.20466 5.17347 3.05154 5.34847 2.89294 5.52894C2.73435 5.34847 2.58122 5.17347 2.4281 4.993C2.28591 4.82894 2.10544 4.77425 1.90857 4.83988C1.53123 4.96566 1.15388 5.08597 0.776538 5.20082C0.535913 5.27738 0.404663 5.45785 0.404663 5.70394C0.404663 5.72035 0.404663 5.7641 0.404663 5.76957L0.590601 9.1055L0.596069 9.16019C0.628882 9.64691 0.699975 9.83285 1.11013 9.99144L1.30701 12.9938C1.33435 13.4094 1.68435 13.7375 2.09998 13.7375H3.68591C4.10154 13.7375 4.45154 13.4094 4.47888 12.9938L4.68669 9.83285C4.68669 9.82191 4.68669 9.81644 4.69216 9.8055L4.92185 6.50238C4.92185 6.34378 4.80701 6.20707 4.65388 6.19613Z" fill="white"></path>
    <path d="M13.3164 0.262512H2.88752C2.7344 0.262512 2.60315 0.388293 2.60315 0.546887C2.60315 0.705481 2.72893 0.831262 2.88752 0.831262H13.0321V8.15939H5.55081C5.39768 8.15939 5.26643 8.28517 5.26643 8.44376C5.26643 8.59689 5.39221 8.72814 5.55081 8.72814H13.3164C13.4696 8.72814 13.6008 8.60236 13.6008 8.44376V0.546887C13.6008 0.393762 13.475 0.262512 13.3164 0.262512Z" fill="white"></path>
  </symbol>
  

  <symbol fill="none" xmlns="http://www.w3.org/2000/svg" viewBox="0 0 15 15" id="magic">
    <path fill-rule="evenodd" clip-rule="evenodd" d="M13.8372 0.465117C13.8372 0.20824 13.629 0 13.3721 0C13.1152 0 12.907 0.20824 12.907 0.465117V1.1628H12.2093C11.9524 1.1628 11.7442 1.37103 11.7442 1.62791C11.7442 1.88478 11.9524 2.09303 12.2093 2.09303H12.907V2.7907C12.907 3.04758 13.1152 3.25582 13.3721 3.25582C13.629 3.25582 13.8372 3.04758 13.8372 2.7907V2.09303H14.5349C14.7917 2.09303 15 1.88478 15 1.62791C15 1.37103 14.7917 1.1628 14.5349 1.1628H13.8372V0.465117ZM11.4577 3.54238C11.6847 3.76942 11.6847 4.13754 11.4577 4.3646L10.2949 5.52739C10.0678 5.75444 9.69965 5.75444 9.47268 5.52739C9.24558 5.30034 9.24558 4.93223 9.47268 4.70517L10.6354 3.54239C10.8624 3.31533 11.2306 3.31533 11.4577 3.54238ZM9.13206 5.86796C9.35907 6.09501 9.35907 6.46313 9.13206 6.69018L0.992503 14.8297C0.765456 15.0568 0.39734 15.0568 0.170294 14.8297C-0.0567645 14.6027 -0.0567645 14.2346 0.170294 14.0075L8.30984 5.86796C8.53688 5.64091 8.90501 5.64091 9.13206 5.86796ZM13.3721 5.81396C13.629 5.81396 13.8372 6.02219 13.8372 6.27908V6.97675H14.5349C14.7917 6.97675 15 7.18498 15 7.44187C15 7.69874 14.7917 7.90698 14.5349 7.90698H13.8372V8.60466C13.8372 8.86153 13.629 9.06977 13.3721 9.06977C13.1152 9.06977 12.907 8.86153 12.907 8.60466V7.90698H12.2093C11.9524 7.90698 11.7442 7.69874 11.7442 7.44187C11.7442 7.18498 11.9524 6.97675 12.2093 6.97675H12.907V6.27908C12.907 6.02219 13.1152 5.81396 13.3721 5.81396ZM8.02328 0.465117C8.02328 0.20824 7.81504 0 7.55816 0C7.30128 0 7.09305 0.20824 7.09305 0.465117V1.1628H6.39537C6.13849 1.1628 5.93026 1.37103 5.93026 1.62791C5.93026 1.88478 6.13849 2.09303 6.39537 2.09303H7.09305V2.7907C7.09305 3.04758 7.30128 3.25582 7.55816 3.25582C7.81504 3.25582 8.02328 3.04758 8.02328 2.7907V2.09303H8.72095C8.97783 2.09303 9.18607 1.88478 9.18607 1.62791C9.18607 1.37103 8.97783 1.1628 8.72095 1.1628H8.02328V0.465117Z" fill="white"></path>
  </symbol>


  <symbol fill="none" xmlns="http://www.w3.org/2000/svg" viewBox="0 0 30 30" id="itemCharacteristics">
    <path d="M20.3534 12.1467L18.8534 10.6467C18.6579 10.4512 18.3419 10.4512 18.1465 10.6467L13 15.7931L11.3536 14.1467C11.1581 13.9511 10.8421 13.9511 10.6466 14.1467L9.14664 15.6466C8.95112 15.8421 8.95112 16.1582 9.14664 16.3536L12.6466 19.8535C12.7441 19.9516 12.8721 20 13 20C13.1281 20 13.256 19.951 13.3535 19.8535L20.3534 12.8537C20.5489 12.6582 20.5489 12.3422 20.3534 12.1467ZM13 18.7931L10.2071 16.0001L11.0001 15.2071L12.6466 16.8536C12.8421 17.0491 13.1581 17.0491 13.3535 16.8536L18.5 11.7072L19.2929 12.5002L13 18.7931Z" fill="white"></path>
    <path d="M29.8837 17.6801L27.6507 15.0001L29.8837 12.3202C30.0082 12.1712 30.0347 11.9637 29.9527 11.7882C29.8702 11.6127 29.6937 11.5002 29.4997 11.5002H22.9333L22.4948 8.4298C22.4598 8.1833 22.2488 8.00031 21.9998 8.00031H18.1809C17.5919 7.50931 15.3199 5.61636 15.3199 5.61636C15.1344 5.46138 14.8654 5.46138 14.6799 5.61636L11.8189 8.00031H7.99999C7.75098 8.00031 7.54051 8.1833 7.505 8.42933L7.0665 11.5003H0.500255C0.306254 11.5003 0.129773 11.6128 0.047275 11.7883C-0.0352235 11.9643 -0.00821226 12.1718 0.116297 12.3202L2.34926 15.0002L0.116297 17.6802C-0.00821226 17.8292 -0.0346961 18.0366 0.047275 18.2121C0.129773 18.3881 0.306254 18.5001 0.500255 18.5001H7.06661C7.20009 19.4326 7.50559 21.5711 7.50559 21.5711C7.54057 21.8176 7.75156 22.0001 8.00005 22.0001H11.819L14.68 24.384C14.773 24.4616 14.8864 24.5 14.9999 24.5C15.1134 24.5 15.2275 24.4616 15.3199 24.384L18.1803 22.0001C18.9573 22.0001 22.0008 22.0021 21.9998 22.0001C22.2488 22.0001 22.4592 21.8171 22.4948 21.5711C22.4948 21.5711 22.8003 19.4326 22.9337 18.5001H29.4996C29.6936 18.5001 29.8701 18.3876 29.9526 18.2121C30.0352 18.0361 30.0082 17.8286 29.8837 17.6801ZM1.56775 17.5001L3.38424 15.3202C3.53875 15.1347 3.53875 14.8652 3.38424 14.6802L1.56775 12.5002H6.43264L4.61615 14.6801C4.46164 14.8656 4.46164 15.1351 4.61615 15.3201L6.43264 17.5H1.56775V17.5001ZM22.1164 17.6796C22.0919 17.709 22.0704 17.7416 22.0534 17.7761C22.0184 17.8461 22.0169 17.8491 21.5669 21C17.8825 21 17.8789 21.002 17.7765 21.053C17.742 21.0706 17.7095 21.0915 17.68 21.116L15 23.349L12.32 21.116C12.2306 21.041 12.117 21 12.0001 21H8.43364C7.98365 17.8491 7.98212 17.8461 7.94714 17.7761C7.92962 17.7416 7.90865 17.7091 7.88416 17.6796L5.65119 15.0001L7.88416 12.3202C7.94369 12.2487 7.98218 12.1627 7.99513 12.0707L8.43364 9.00025H12.0001C12.1171 9.00025 12.23 8.95924 12.32 8.88424L15 6.65128C17.724 8.92121 17.726 8.92221 17.7765 8.94776C17.846 8.98227 17.9225 9.00025 17.9999 9.00025H21.5664L22.0049 12.0712C22.0179 12.1632 22.0564 12.2492 22.1158 12.3207L24.3488 15.0001L22.1164 17.6796ZM23.5673 17.5001L25.3838 15.3202C25.5383 15.1347 25.5383 14.8652 25.3838 14.6802L23.5673 12.5002H28.4322L26.6157 14.6802C26.4612 14.8657 26.4612 15.1351 26.6157 15.3202L28.4322 17.5001H23.5673Z" fill="white"></path>
  </symbol>


  <symbol fill="none" xmlns="http://www.w3.org/2000/svg" viewBox="0 0 30 30" id="itemLove">
    <path d="M29.9504 9.37087C29.5125 4.55098 26.1009 1.05404 21.8314 1.05404C18.987 1.05404 16.3827 2.58471 14.9172 5.03793C13.465 2.55298 10.9673 1.05347 8.16853 1.05347C3.89963 1.05347 0.487514 4.5504 0.0501807 9.37029C0.0155633 9.58319 -0.126368 10.7036 0.305195 12.5309C0.927154 15.1664 2.36378 17.5636 4.4587 19.4618L14.9103 28.9464L25.5413 19.4624C27.6362 17.5637 29.0728 15.167 29.6948 12.5309C30.1263 10.7042 29.9844 9.58377 29.9504 9.37087ZM28.5714 12.2666C28.0037 14.6737 26.6877 16.8667 24.7693 18.6045L14.9172 27.3944L5.23413 18.6068C3.31229 16.8655 1.99683 14.6731 1.42853 12.266C1.02004 10.5369 1.18794 9.56011 1.18852 9.55376L1.19717 9.49549C1.57219 5.27275 4.50371 2.20738 8.16853 2.20738C10.8727 2.20738 13.2533 3.86901 14.3829 6.54321L14.9143 7.8027L15.4457 6.54321C16.5575 3.90998 19.0638 2.20796 21.832 2.20796C25.4963 2.20796 28.4284 5.27333 28.8109 9.55088C28.812 9.56011 28.9799 10.5375 28.5714 12.2666Z" fill="white"></path>
  </symbol>


  <symbol fill="none" xmlns="http://www.w3.org/2000/svg" viewBox="0 0 30 30" id="itemReview">
    <path d="M27.338 10.6796C25.6693 9.39872 23.4599 8.69329 21.1166 8.69329C19.6997 8.69329 18.332 8.95166 17.103 9.4387C16.4887 8.26949 15.464 7.23407 14.1604 6.48057C12.6256 5.59337 10.8008 5.12445 8.88349 5.12445C6.54012 5.12445 4.33071 5.82988 2.6621 7.11076C0.945367 8.42843 0 10.1954 0 12.0861C0 13.789 0.778959 15.4096 2.20016 16.6786L2.22435 20.8268C2.22557 21.0433 2.33541 21.2534 2.52808 21.3521C2.75682 21.4694 2.97496 21.4413 3.13494 21.3579L7.43829 18.9561C7.91541 19.0171 8.40043 19.048 8.88349 19.048C8.88361 19.048 8.88373 19.048 8.88386 19.048C10.2828 19.048 11.6556 18.7912 12.8919 18.3026C13.3431 19.1669 14.0182 19.9574 14.8951 20.6306C16.5637 21.9115 18.7732 22.6169 21.1166 22.6169C21.602 22.6169 22.0897 22.5856 22.5694 22.524L26.8781 24.7949C27.1226 24.9194 27.3039 24.889 27.4783 24.7783C27.6588 24.6638 27.7745 24.4707 27.7758 24.2568L27.8 20.2475C29.221 18.9787 30 17.3579 30 15.6551C30 13.7644 29.0546 11.9975 27.338 10.6796ZM8.8838 17.8234C8.88367 17.8234 8.88343 17.8234 8.88343 17.8234C8.38488 17.8234 7.884 17.7865 7.39482 17.7141C7.21965 17.6882 7.05092 17.739 6.92259 17.8415L3.44265 19.7838L3.42306 16.4051C3.42331 16.3929 3.42306 16.3805 3.42245 16.3682C3.41443 16.1961 3.33441 16.0354 3.2018 15.9254C1.9268 14.8674 1.22449 13.5038 1.22449 12.0861C1.22449 8.92258 4.66035 6.34888 8.88349 6.34888C12.0123 6.34888 14.8411 7.81043 15.9948 9.96125C15.6077 10.1755 15.2397 10.4151 14.8951 10.6796C13.1784 11.9974 12.233 13.7644 12.233 15.6551C12.233 16.1696 12.3037 16.6749 12.4401 17.1646C11.3472 17.5965 10.1291 17.8234 8.8838 17.8234ZM26.7981 19.4944C26.6657 19.6044 26.5856 19.7652 26.5776 19.9372C26.577 19.9483 26.5769 19.9594 26.5769 19.9705L26.5573 23.2417L23.0662 21.4018C22.9393 21.305 22.7754 21.2578 22.605 21.283C22.1157 21.3556 21.6149 21.3924 21.1164 21.3924C17.658 21.3924 14.7282 19.6663 13.7803 17.3037C13.7764 17.2922 13.7713 17.281 13.7666 17.2696C13.5658 16.7572 13.4574 16.2155 13.4574 15.6551C13.4574 13.6195 14.8801 11.8284 17.0196 10.8097C17.0211 10.8091 17.0227 10.8087 17.0242 10.8081C17.0481 10.7987 17.0709 10.7874 17.093 10.7754C18.2629 10.232 19.6416 9.91778 21.1164 9.91778C25.3396 9.91778 28.7754 12.4915 28.7754 15.6551C28.7755 17.0727 28.0732 18.4363 26.7981 19.4944Z" fill="white"></path>
    <path d="M24.7133 13.6038H17.5197C17.1816 13.6038 16.9075 13.8779 16.9075 14.2161C16.9075 14.5542 17.1816 14.8283 17.5197 14.8283H24.7133C25.0513 14.8283 25.3255 14.5542 25.3255 14.2161C25.3255 13.8779 25.0514 13.6038 24.7133 13.6038Z" fill="white"></path>
    <path d="M24.7133 16.3757H17.5197C17.1816 16.3757 16.9075 16.6498 16.9075 16.9879C16.9075 17.326 17.1816 17.6001 17.5197 17.6001H24.7133C25.0513 17.6001 25.3255 17.326 25.3255 16.9879C25.3255 16.6498 25.0514 16.3757 24.7133 16.3757Z" fill="white"></path>
    <path d="M27.338 10.6796C25.6693 9.39872 23.4599 8.69329 21.1166 8.69329C19.6997 8.69329 18.332 8.95166 17.103 9.4387C16.4887 8.26949 15.464 7.23407 14.1604 6.48057C12.6256 5.59337 10.8008 5.12445 8.88349 5.12445C6.54012 5.12445 4.33071 5.82988 2.6621 7.11076C0.945367 8.42843 0 10.1954 0 12.0861C0 13.789 0.778959 15.4096 2.20016 16.6786L2.22435 20.8268C2.22557 21.0433 2.33541 21.2534 2.52808 21.3521C2.75682 21.4694 2.97496 21.4413 3.13494 21.3579L7.43829 18.9561C7.91541 19.0171 8.40043 19.048 8.88349 19.048C8.88361 19.048 8.88373 19.048 8.88386 19.048C10.2828 19.048 11.6556 18.7912 12.8919 18.3026C13.3431 19.1669 14.0182 19.9574 14.8951 20.6306C16.5637 21.9115 18.7732 22.6169 21.1166 22.6169C21.602 22.6169 22.0897 22.5856 22.5694 22.524L26.8781 24.7949C27.1226 24.9194 27.3039 24.889 27.4783 24.7783C27.6588 24.6638 27.7745 24.4707 27.7758 24.2568L27.8 20.2475C29.221 18.9787 30 17.3579 30 15.6551C30 13.7644 29.0546 11.9975 27.338 10.6796ZM8.8838 17.8234C8.88367 17.8234 8.88343 17.8234 8.88343 17.8234C8.38488 17.8234 7.884 17.7865 7.39482 17.7141C7.21965 17.6882 7.05092 17.739 6.92259 17.8415L3.44265 19.7838L3.42306 16.4051C3.42331 16.3929 3.42306 16.3805 3.42245 16.3682C3.41443 16.1961 3.33441 16.0354 3.2018 15.9254C1.9268 14.8674 1.22449 13.5038 1.22449 12.0861C1.22449 8.92258 4.66035 6.34888 8.88349 6.34888C12.0123 6.34888 14.8411 7.81043 15.9948 9.96125C15.6077 10.1755 15.2397 10.4151 14.8951 10.6796C13.1784 11.9974 12.233 13.7644 12.233 15.6551C12.233 16.1696 12.3037 16.6749 12.4401 17.1646C11.3472 17.5965 10.1291 17.8234 8.8838 17.8234ZM26.7981 19.4944C26.6657 19.6044 26.5856 19.7652 26.5776 19.9372C26.577 19.9483 26.5769 19.9594 26.5769 19.9705L26.5573 23.2417L23.0662 21.4018C22.9393 21.305 22.7754 21.2578 22.605 21.283C22.1157 21.3556 21.6149 21.3924 21.1164 21.3924C17.658 21.3924 14.7282 19.6663 13.7803 17.3037C13.7764 17.2922 13.7713 17.281 13.7666 17.2696C13.5658 16.7572 13.4574 16.2155 13.4574 15.6551C13.4574 12.4296 16.9471 9.91778 21.1164 9.91778C25.2858 9.91778 28.7755 12.4915 28.7755 15.6551C28.7755 17.0727 28.0732 18.4363 26.7981 19.4944Z" fill="white"></path>
    <path d="M24.7133 13.6038H17.5197C17.1816 13.6038 16.9075 13.8779 16.9075 14.2161C16.9075 14.5542 17.1816 14.8283 17.5197 14.8283H24.7133C25.0513 14.8283 25.3255 14.5542 25.3255 14.2161C25.3255 13.8779 25.0514 13.6038 24.7133 13.6038Z" fill="white"></path>
    <path d="M24.7133 16.3757H17.5197C17.1816 16.3757 16.9075 16.6498 16.9075 16.9879C16.9075 17.326 17.1816 17.6001 17.5197 17.6001H24.7133C25.0513 17.6001 25.3255 17.326 25.3255 16.9879C25.3255 16.6498 25.0514 16.3757 24.7133 16.3757Z" fill="white"></path>
  </symbol>


  <symbol fill="none" xmlns="http://www.w3.org/2000/svg" viewBox="0 0 30 30" id="itemSpeed">
    <path d="M25.6066 4.39342C22.7735 1.56023 19.0066 0 15 0C10.9934 0 7.22654 1.56023 4.39342 4.39342C1.56023 7.22648 0 10.9934 0 15C0 19.0066 1.56023 22.7735 4.39342 25.6066C7.22654 28.4398 10.9934 30 15 30C19.0066 30 22.7735 28.4398 25.6066 25.6066C28.4398 22.7735 30 19.0066 30 15C30 10.9934 28.4398 7.22648 25.6066 4.39342ZM15 28.7234C7.43285 28.7234 1.27658 22.5671 1.27658 15C1.27658 7.43291 7.43285 1.27658 15 1.27658C22.5671 1.27658 28.7234 7.43291 28.7234 15C28.7234 22.5671 22.5671 28.7234 15 28.7234Z" fill="white"></path>
    <path d="M25.8092 8.83508C25.8003 8.81528 25.7904 8.79576 25.7793 8.7766C25.603 8.47145 25.2128 8.36674 24.9073 8.54299L23.0337 9.62469C22.7284 9.80094 22.6237 10.1913 22.8001 10.4966C22.9184 10.7014 23.1328 10.8158 23.3535 10.8158C23.4618 10.8158 23.5714 10.7882 23.672 10.7302L24.9748 9.97807C25.6054 11.2271 25.9949 12.5875 26.1227 13.9831C23.6149 13.3835 16.8148 11.7879 15.5668 11.8089C14.7145 11.8238 13.9189 12.1696 13.3267 12.7829C12.7345 13.3961 12.4166 14.2032 12.4315 15.0556C12.4619 16.7963 13.8875 18.1915 15.6217 18.1914C15.6404 18.1914 15.6594 18.1912 15.6782 18.1909C16.927 18.169 23.6637 16.3374 26.1501 15.6501C26.0611 17.1736 25.6605 18.6636 24.9748 20.0219L23.6719 19.2697C23.3666 19.0934 22.9762 19.1981 22.8 19.5034C22.6237 19.8086 22.7283 20.199 23.0336 20.3753L24.9073 21.457C25.0078 21.515 25.1175 21.5426 25.2258 21.5426C25.4464 21.5426 25.6609 21.4282 25.7792 21.2234C25.7902 21.2042 25.8002 21.1848 25.8091 21.165C26.8802 19.2938 27.4468 17.1639 27.4468 15C27.4468 12.8362 26.8802 10.7062 25.8092 8.83508ZM15.6559 16.9145C14.5986 16.9334 13.7263 16.089 13.7078 15.0333C13.6989 14.5219 13.8897 14.0376 14.245 13.6697C14.6003 13.3017 15.0776 13.0942 15.5891 13.0853C15.595 13.0852 15.601 13.0852 15.6071 13.0852C16.4415 13.0852 20.6174 14.0001 24.2427 14.8495C20.6223 15.8321 16.4458 16.9007 15.6559 16.9145Z" fill="white"></path>
    <path d="M15 5.99326C15.3525 5.99326 15.6383 5.7075 15.6383 5.35494V3.19148C15.6383 2.83892 15.3525 2.55316 15 2.55316C14.6476 2.55316 14.3617 2.83892 14.3617 3.19148V5.35494C14.3617 5.70744 14.6476 5.99326 15 5.99326Z" fill="white"></path>
    <path d="M5.99338 15C5.99338 14.6475 5.70756 14.3617 5.35506 14.3617H3.19154C2.8391 14.3617 2.55322 14.6475 2.55322 15C2.55322 15.3526 2.83904 15.6383 3.19154 15.6383H5.35506C5.7075 15.6383 5.99338 15.3526 5.99338 15Z" fill="white"></path>
    <path d="M6.32804 19.2698L4.45439 20.3515C4.14912 20.5277 4.04447 20.9181 4.22078 21.2234C4.33908 21.4282 4.55353 21.5426 4.77419 21.5426C4.88248 21.5426 4.99222 21.515 5.09271 21.457L6.96636 20.3753C7.27164 20.1991 7.37628 19.8087 7.19998 19.5034C7.02367 19.1981 6.63337 19.0935 6.32804 19.2698Z" fill="white"></path>
    <path d="M9.64846 4.45438C9.47216 4.14916 9.08192 4.04445 8.77653 4.22076C8.47126 4.39701 8.36661 4.78736 8.54292 5.0927L9.62462 6.96629C9.74292 7.17108 9.95737 7.28551 10.178 7.28551C10.2863 7.28551 10.3961 7.25791 10.4965 7.1999C10.8018 7.02365 10.9065 6.6333 10.7302 6.32797L9.64846 4.45438Z" fill="white"></path>
    <path d="M6.96636 9.62472L5.09271 8.54297C4.78726 8.36666 4.39697 8.47137 4.22078 8.77658C4.04447 9.08185 4.14912 9.47226 4.45439 9.64851L6.32804 10.7302C6.42859 10.7883 6.53828 10.8158 6.64656 10.8158C6.86716 10.8158 7.08173 10.7014 7.19998 10.4966C7.37628 10.1913 7.27164 9.80092 6.96636 9.62472Z" fill="white"></path>
    <path d="M19.5034 7.19985C19.6039 7.25786 19.7136 7.28546 19.8219 7.28546C20.0425 7.28546 20.257 7.17102 20.3753 6.96624L21.457 5.09265C21.6333 4.78737 21.5286 4.39696 21.2234 4.22071C20.918 4.04441 20.5277 4.14906 20.3514 4.45433L19.2697 6.32792C19.0934 6.63325 19.198 7.0236 19.5034 7.19985Z" fill="white"></path>
    <path d="M18.3192 22.3337H13.9894C13.637 22.3337 13.3511 22.6194 13.3511 22.972C13.3511 23.3246 13.6369 23.6103 13.9894 23.6103H18.3192C18.6717 23.6103 18.9575 23.3246 18.9575 22.972C18.9575 22.6194 18.6716 22.3337 18.3192 22.3337Z" fill="white"></path>
    <path d="M11.7447 22.3337H11.6809C11.3285 22.3337 11.0426 22.6194 11.0426 22.972C11.0426 23.3246 11.3284 23.6103 11.6809 23.6103H11.7447C12.0972 23.6103 12.3831 23.3246 12.3831 22.972C12.3831 22.6194 12.0972 22.3337 11.7447 22.3337Z" fill="white"></path>
  </symbol>


  <symbol fill="none" xmlns="http://www.w3.org/2000/svg" viewBox="0 0 23 23" id="iconJS">
    <g clip-path="url(#clip0_322_89)">
      <path d="M11.5 8.95472C11.5 7.93873 12.3814 7.11511 13.4688 7.11511H15.1562C15.6222 7.11511 16 7.4681 16 7.90352C16 8.33893 15.6222 8.69192 15.1562 8.69192H13.4688C13.3134 8.69192 13.1875 8.80955 13.1875 8.95472V10.5315C13.1875 10.6767 13.3134 10.7943 13.4688 10.7943H14.0312C15.1186 10.7943 16 11.618 16 12.6339V14.2108C16 15.2267 15.1186 16.0504 14.0312 16.0504H12.3438C11.8778 16.0504 11.5 15.6974 11.5 15.262C11.5 14.8266 11.8778 14.4736 12.3438 14.4736H14.0312C14.1866 14.4736 14.3125 14.3559 14.3125 14.2108V12.6339C14.3125 12.4888 14.1866 12.3711 14.0312 12.3711H13.4688C12.3814 12.3711 11.5 11.5475 11.5 10.5315V8.95472Z" fill="white"></path>
      <path d="M11 8.10796C11 7.6115 11 7.11513 10.5 7.11511C10 7.1151 10.5 7.11522 10 7.11517C9.5 7.11513 9.5 7.61152 9.5 8.10796V11.0864V14.2108C9.5 14.356 8.91085 14.4736 8.77828 14.4736H7.72C7.32236 14.4736 7 14.8266 7 15.262C7 15.6974 7.32236 16.0504 7.72 16.0504H8.92C9.84784 16.0504 11 16.0504 11 14.2108V8.10796Z" fill="white"></path>
      <path d="M19.2803 23.0001H3.81589C1.70711 23.0001 0 21.3123 0 19.2274V3.93819C0 1.8533 1.70711 0.165527 3.81589 0.165527H19.1799C21.2887 0.165527 22.9958 1.8533 22.9958 3.93819V19.1281C23.0962 21.3123 21.3891 23.0001 19.2803 23.0001ZM3.81589 1.15833C2.2092 1.15833 1.00418 2.44898 1.00418 3.93819V19.1281C1.00418 20.7166 2.30962 21.908 3.81589 21.908H19.1799C20.7866 21.908 21.9916 20.6173 21.9916 19.1281V3.93819C21.9916 2.3497 20.6862 1.15833 19.1799 1.15833H3.81589Z" fill="white"></path>
    </g>
    <defs>
      <clipPath id="clip0_322_89">
        <rect width="23" height="22.8345" fill="white" transform="translate(0 0.165527)"></rect>
      </clipPath>
    </defs>
  </symbol>

  <symbol fill="none" xmlns="http://www.w3.org/2000/svg" viewBox="0 0 34 34" id="iconHTML">
    <path d="M28.5013 34H5.64089C2.52356 34 0 31.487 0 28.3826V5.61739C0 2.51304 2.52356 0 5.64089 0H28.3529C31.4702 0 33.9938 2.51304 33.9938 5.61739V28.2348C34.1422 31.487 31.6187 34 28.5013 34ZM5.64089 1.47826C3.26578 1.47826 1.48444 3.4 1.48444 5.61739V28.2348C1.48444 30.6 3.41422 32.3739 5.64089 32.3739H28.3529C30.728 32.3739 32.5093 30.4522 32.5093 28.2348V5.61739C32.5093 3.25217 30.5795 1.47826 28.3529 1.47826H5.64089Z" fill="white"></path>
    <path d="M27.394 22.1739H24.6223C23.9293 22.1739 23.9293 22.1739 23.9293 21.6811C23.9293 21.6811 23.9293 14.2893 23.9293 13.797C23.9293 13.3047 23.9293 13.3047 24.6223 13.3047C25.3152 13.3047 25.3152 13.3043 25.3152 13.797C25.3152 13.797 25.3152 19.4637 25.3152 19.9565C25.3152 20.4493 25.1766 20.6956 25.8695 20.6956C26.5625 20.6956 27.3478 20.6956 27.3478 20.6956C28.0407 20.6956 28.0869 20.6956 28.0869 21.4348C28.0869 22.1739 28.0869 22.1739 27.394 22.1739Z" fill="white"></path>
    <path d="M21.8505 22.1739C21.1576 22.1739 21.1576 22.1739 21.1576 21.6811V18.7246C21.1576 18.7246 20.4647 20.2029 20.4647 21.1884C20.4647 22.1739 20.4647 22.1739 20.1182 22.1739C19.7717 22.1739 19.7717 22.1739 19.7717 22.1739C19.7717 22.1739 19.7717 22.1739 19.4253 22.1739C19.0788 22.1739 19.0788 22.1739 19.0788 21.1884C19.0788 20.2029 18.3859 18.7246 18.3859 18.7246V21.6811C18.3859 22.1739 18.3859 22.174 17.6929 22.1739C17 22.1739 17 22.1739 17 21.6811V13.7971C17 13.3043 17 13.3043 17.6929 13.3043C18.3859 13.3043 18.3859 13.3043 18.3859 13.7971L19.7717 18.2301L21.1576 13.7971C21.1576 13.3043 21.1576 13.3043 21.8505 13.3043C22.5435 13.3043 22.5435 13.3043 22.5435 13.7971V21.6811C22.5435 22.1739 22.5435 22.174 21.8505 22.1739Z" fill="white"></path>
    <path d="M14.9212 14.7826H12.1495C11.4565 14.7831 11.4565 14.7831 11.4565 14.0435C11.4565 13.3038 11.4565 13.3043 12.1495 13.3043H14.9212C15.6142 13.3043 15.6142 13.3038 15.6142 14.0435C15.6142 14.7831 15.6142 14.7831 14.9212 14.7826Z" fill="white"></path>
    <path d="M13.5353 22.1739C12.8424 22.1739 12.8424 22.1739 12.8424 21.6811V14.2898C12.8424 13.4739 12.8424 13.3043 13.5353 13.3047C14.2283 13.305 14.2283 13.4739 14.2283 14.2898V21.6811C14.2283 22.1739 14.2283 22.1739 13.5353 22.1739Z" fill="white"></path>
    <path d="M9.37776 18.2318H6.60602C6.22352 18.2318 5.91309 18.0121 5.91309 17.7391C5.91309 17.4661 6.22352 17.2463 6.60602 17.2463H9.37776C9.76026 17.2463 10.0707 17.4671 10.0707 17.7391C10.0707 18.0111 9.76026 18.2318 9.37776 18.2318Z" fill="white"></path>
    <path d="M6.60602 22.1738C5.91309 22.1738 5.91309 22.1739 5.91309 21.6811V13.7972C5.91309 13.3043 5.91309 13.3043 6.60602 13.3046C7.29896 13.305 7.29896 13.3043 7.29896 13.7971V21.6811C7.29896 22.1739 7.29896 22.1738 6.60602 22.1738Z" fill="white"></path>
    <path d="M9.37776 22.1735C8.68483 22.1735 8.68483 22.1739 8.68483 21.6811V13.7971C8.68483 13.3043 8.68483 13.3043 9.37776 13.3043C10.0707 13.3043 10.0707 13.3043 10.0707 13.7971V21.6811C10.0707 22.1739 10.0707 22.1735 9.37776 22.1735Z" fill="white"></path>
  </symbol>


  <symbol fill="none" xmlns="http://www.w3.org/2000/svg" viewBox="0 0 34 34" id="iconCSS">
    <path d="M28.5013 34H5.64089C2.52356 34 0 31.487 0 28.3826V5.61739C0 2.51304 2.52356 0 5.64089 0H28.3529C31.4702 0 33.9938 2.51304 33.9938 5.61739V28.2348C34.1422 31.487 31.6187 34 28.5013 34ZM5.64089 1.47826C3.26578 1.47826 1.48444 3.4 1.48444 5.61739V28.2348C1.48444 30.6 3.41422 32.3739 5.64089 32.3739H28.3529C30.728 32.3739 32.5093 30.4522 32.5093 28.2348V5.61739C32.5093 3.25217 30.5795 1.47826 28.3529 1.47826H5.64089Z" fill="white"></path>
    <path d="M9.62068 13.7352C8.76202 13.7352 8.26616 14.185 8.26616 15.1396V18.8604C8.26616 19.815 8.76202 20.2647 9.63092 20.2647C10.8353 20.2647 10.9104 19.4077 10.9559 18.8604C11.0014 18.3406 11.5131 18.2006 12.1148 18.2006C12.9279 18.2006 13.3044 18.3969 13.3044 19.239C13.3044 21.1068 11.6781 22.1739 9.52628 22.1739C7.55307 22.1739 5.91309 21.2755 5.91309 18.8604V15.1396C5.91309 12.7244 7.55307 11.826 9.52628 11.826C11.6781 11.826 13.3044 12.8369 13.3044 14.6198C13.3044 15.4631 12.9279 15.6593 12.1307 15.6593C11.4984 15.6593 10.9866 15.5044 10.9559 14.9996C10.9422 14.6347 10.9001 13.7352 9.62068 13.7352Z" fill="white"></path>
    <path d="M18.3487 19.3178C18.3487 17.6439 13.5728 17.9326 13.5728 14.6926C13.5728 12.6149 15.5446 11.826 17.4254 11.826C18.2214 11.826 20.4206 11.9641 20.4206 13.0449C20.4206 13.4183 20.1499 14.18 19.4881 14.18C18.9457 14.18 18.6603 13.6569 17.4254 13.6569C16.3565 13.6569 15.9198 14.0586 15.9198 14.4875C15.9198 15.8727 20.6957 15.6101 20.6957 19.0991C20.6957 21.0932 19.1151 22.1739 16.9319 22.1739C14.9601 22.1739 13.3044 21.2878 13.3044 20.3734C13.3044 19.9026 13.7593 19.21 14.3279 19.21C15.0363 19.21 15.4877 20.2353 16.8875 20.2353C17.5789 20.228 18.3487 19.9779 18.3487 19.3178Z" fill="white"></path>
    <path d="M25.7388 19.3178C25.7388 17.6439 20.9629 17.9326 20.9629 14.6926C20.9629 12.6149 22.9347 11.826 24.8155 11.826C25.6115 11.826 27.8107 11.9641 27.8107 13.0449C27.8107 13.4183 27.54 14.18 26.8782 14.18C26.3358 14.18 26.0504 13.6569 24.8155 13.6569C23.7477 13.6569 23.3111 14.0586 23.3111 14.4875C23.3111 15.8727 28.087 15.6101 28.087 19.0991C28.087 21.0932 26.5064 22.1739 24.3231 22.1739C22.3513 22.1739 20.6957 21.2878 20.6957 20.3734C20.6957 19.9026 21.1505 19.21 21.7191 19.21C22.4275 19.21 22.879 20.2353 24.2788 20.2353C24.9713 20.228 25.7388 19.9779 25.7388 19.3178Z" fill="white"></path>
  </symbol>


  <symbol fill="none" xmlns="http://www.w3.org/2000/svg" viewBox="0 0 34 34" id="iconVue">
    <path d="M28.5013 34H5.64089C2.52356 34 0 31.487 0 28.3826V5.61739C0 2.51304 2.52356 0 5.64089 0H28.3529C31.4702 0 33.9938 2.51304 33.9938 5.61739V28.2348C34.1422 31.487 31.6187 34 28.5013 34ZM5.64089 1.47826C3.26578 1.47826 1.48444 3.4 1.48444 5.61739V28.2348C1.48444 30.6 3.41422 32.3739 5.64089 32.3739H28.3529C30.728 32.3739 32.5093 30.4522 32.5093 28.2348V5.61739C32.5093 3.25217 30.5795 1.47826 28.3529 1.47826H5.64089Z" fill="white"></path>
    <path d="M27.9743 16.8873H24.3914" stroke="white" stroke-width="1.5" stroke-linecap="round" stroke-linejoin="round"></path>
    <path d="M28.5715 20.4703H24.3914V13.3043H28.5715" stroke="white" stroke-width="1.5" stroke-linecap="round" stroke-linejoin="round"></path>
    <path d="M5.91309 13.3043L8.86961 20.6956L11.8261 13.3043" stroke="white" stroke-width="1.5" stroke-linecap="round" stroke-linejoin="round"></path>
    <path d="M15.3257 13.3043V17.783C15.3257 18.4957 15.6088 19.1793 16.1128 19.6832C16.6167 20.1872 17.3002 20.4703 18.0129 20.4703C18.7256 20.4703 19.4091 20.1872 19.9131 19.6832C20.417 19.1793 20.7002 18.4957 20.7002 17.783V13.3043" stroke="white" stroke-width="1.5" stroke-linecap="round" stroke-linejoin="round"></path>
  </symbol>


  <symbol fill="none" xmlns="http://www.w3.org/2000/svg" viewBox="0 0 34 34" id="iconNuxt">
    <path d="M28.5013 34H5.64089C2.52356 34 0 31.487 0 28.3826V5.61739C0 2.51304 2.52356 0 5.64089 0H28.3529C31.4702 0 33.9938 2.51304 33.9938 5.61739V28.2348C34.1422 31.487 31.6187 34 28.5013 34ZM5.64089 1.47826C3.26578 1.47826 1.48444 3.4 1.48444 5.61739V28.2348C1.48444 30.6 3.41422 32.3739 5.64089 32.3739H28.3529C30.728 32.3739 32.5093 30.4522 32.5093 28.2348V5.61739C32.5093 3.25217 30.5795 1.47826 28.3529 1.47826H5.64089Z" fill="white"></path>
    <path d="M12.5652 22.1739C11.826 22.1739 11.826 22.1739 11.826 21.6812V13.7972C11.826 13.3043 11.826 13.3043 12.5652 13.3046C13.3043 13.305 13.3043 13.3043 13.3043 13.7971V21.6812C13.3043 22.1739 13.3043 22.1739 12.5652 22.1739Z" fill="white"></path>
    <path d="M15.5217 22.1736C14.7826 22.1736 14.7826 22.1739 14.7826 21.6812V13.7971C14.7826 13.3043 14.7826 13.3043 15.5217 13.3043C16.2608 13.3043 16.2608 13.3043 16.2608 13.7971V21.6812C16.2608 22.1739 16.2608 22.1736 15.5217 22.1736Z" fill="white"></path>
    <path d="M16.2608 21.4348C16.2608 22.1731 16.2608 22.1731 16.0144 22.1731H12.3186C11.9106 22.1731 11.8258 22.229 11.8261 21.4348C11.8263 20.6406 11.9106 20.6965 12.3186 20.6965H16.0144C16.2608 20.6965 16.2608 20.6965 16.2608 21.4348Z" fill="white"></path>
    <path d="M25.8696 22.1739C25.1313 22.1739 25.1313 22.1739 25.1313 21.6811V14.2895C25.1313 13.4735 25.0754 13.3039 25.8696 13.3043C26.6638 13.3048 26.6079 13.4735 26.6079 14.2895V21.6811C26.6079 22.1739 26.6079 22.1739 25.8696 22.1739Z" fill="white"></path>
    <path d="M28.087 14.0435C28.087 14.7817 28.087 14.7817 27.8406 14.7817H24.1448C23.7368 14.7817 23.652 14.8376 23.6522 14.0435C23.6524 13.2493 23.7368 13.3052 24.1448 13.3052H27.8406C28.087 13.3052 28.087 13.3052 28.087 14.0435Z" fill="white"></path>
    <path d="M18.4822 22.0523C17.7843 21.8116 17.7843 21.8116 17.9493 21.3331L20.4241 14.1552C20.6973 13.3628 20.7013 13.1799 21.4519 13.4392C22.2026 13.6985 22.0932 13.8441 21.82 14.6365L19.3452 21.8144C19.1802 22.2929 19.1802 22.2929 18.4822 22.0523Z" fill="white"></path>
    <path d="M21.547 22.0327C20.8541 22.2874 20.8541 22.2874 20.6792 21.8116L18.0562 14.6747C17.7666 13.8868 17.654 13.7423 18.3996 13.4688C19.1452 13.1952 19.1526 13.3775 19.4421 14.1653L22.0651 21.3023C22.24 21.778 22.24 21.7781 21.547 22.0327Z" fill="white"></path>
    <path d="M6.64907 22.1738C5.91455 22.1738 5.91455 22.1739 5.91455 21.6811V13.7972C5.91455 13.3043 5.91455 13.3043 6.64907 13.3046C7.38358 13.305 7.38358 13.3043 7.38358 13.7971V21.6811C7.38358 22.1739 7.38358 22.1738 6.64907 22.1738Z" fill="white"></path>
    <path d="M9.58713 22.1735C8.85261 22.1735 8.85261 22.1739 8.85261 21.6811V13.7971C8.85261 13.3043 8.85261 13.3043 9.58713 13.3043C10.3216 13.3043 10.3216 13.3043 10.3216 13.7971V21.6811C10.3216 22.1739 10.3216 22.1735 9.58713 22.1735Z" fill="white"></path>
    <path d="M9.62738 21.9721C8.90771 22.198 8.90771 22.198 8.74002 21.7225L6.22469 14.5904C5.947 13.803 5.83479 13.6565 6.6091 13.4139C7.38342 13.1713 7.38635 13.3512 7.66403 14.1386L10.1794 21.2708C10.3471 21.7462 10.3471 21.7462 9.62738 21.9721Z" fill="white"></path>
  </symbol>



</svg>