<svg width="582" height="305" xmlns="http://www.w3.org/2000/svg">
 <!-- Created with SVG Editor - http://github.com/mzalive/SVG Editor/ -->

 <g>
  <title>background</title>
  <rect fill="none" id="canvas_background" height="307" width="584" y="-1" x="-1"/>
  <g display="none" overflow="visible" y="0" x="0" height="100%" width="100%" id="canvasGrid">
   <rect fill="url(#gridpattern)" stroke-width="0" y="1" x="1" height="400" width="580"/>
  </g>
 </g>
 <g>
  <title>Layer 1</title>
  <g stroke="null" id="svg_23">
   <g stroke="null" transform="matrix(1.176450774321908,0,0,1.176450774321908,-4329.570267707494,-2986.5160908988405) " id="svg_5">
    <g stroke="null" id="svg_6">
     <path fill="#ffffff" stroke="null" id="svg_7" d="m4169.759036,2543.325774c-4.16,-4.16 -10.923,-4.16 -15.083,0l-227.136,227.136l-227.114,-227.136c-4.16,-4.16 -10.923,-4.16 -15.083,0c-4.16,4.16 -4.16,10.923 0,15.083l234.667,234.667c2.069,2.091 4.8,3.136 7.531,3.136s5.461,-1.045 7.552,-3.115l234.667,-234.667c4.159,-4.181 4.159,-10.922 -0.001,-15.104z"/>
    </g>
   </g>
   <g stroke="null" transform="matrix(1.176450774321908,0,0,1.176450774321908,-4329.570267707494,-2986.5160908988405) " id="svg_8"/>
   <g stroke="null" transform="matrix(1.176450774321908,0,0,1.176450774321908,-4329.570267707494,-2986.5160908988405) " id="svg_9"/>
   <g stroke="null" transform="matrix(1.176450774321908,0,0,1.176450774321908,-4329.570267707494,-2986.5160908988405) " id="svg_10"/>
   <g stroke="null" transform="matrix(1.176450774321908,0,0,1.176450774321908,-4329.570267707494,-2986.5160908988405) " id="svg_11"/>
   <g stroke="null" transform="matrix(1.176450774321908,0,0,1.176450774321908,-4329.570267707494,-2986.5160908988405) " id="svg_12"/>
   <g stroke="null" transform="matrix(1.176450774321908,0,0,1.176450774321908,-4329.570267707494,-2986.5160908988405) " id="svg_13"/>
   <g stroke="null" transform="matrix(1.176450774321908,0,0,1.176450774321908,-4329.570267707494,-2986.5160908988405) " id="svg_14"/>
   <g stroke="null" transform="matrix(1.176450774321908,0,0,1.176450774321908,-4329.570267707494,-2986.5160908988405) " id="svg_15"/>
   <g stroke="null" transform="matrix(1.176450774321908,0,0,1.176450774321908,-4329.570267707494,-2986.5160908988405) " id="svg_16"/>
   <g stroke="null" transform="matrix(1.176450774321908,0,0,1.176450774321908,-4329.570267707494,-2986.5160908988405) " id="svg_17"/>
   <g stroke="null" transform="matrix(1.176450774321908,0,0,1.176450774321908,-4329.570267707494,-2986.5160908988405) " id="svg_18"/>
   <g stroke="null" transform="matrix(1.176450774321908,0,0,1.176450774321908,-4329.570267707494,-2986.5160908988405) " id="svg_19"/>
   <g stroke="null" transform="matrix(1.176450774321908,0,0,1.176450774321908,-4329.570267707494,-2986.5160908988405) " id="svg_20"/>
   <g stroke="null" transform="matrix(1.176450774321908,0,0,1.176450774321908,-4329.570267707494,-2986.5160908988405) " id="svg_21"/>
   <g stroke="null" transform="matrix(1.176450774321908,0,0,1.176450774321908,-4329.570267707494,-2986.5160908988405) " id="svg_22"/>
  </g>
 </g>
</svg>