<?xml version="1.0" encoding="UTF-8"?>
<svg xmlns="http://www.w3.org/2000/svg" xmlns:xlink="http://www.w3.org/1999/xlink" width="78pt" height="60pt" viewBox="0 0 78 60" version="1.1">
<g id="surface1">
<path style=" stroke:none;fill-rule:nonzero;fill:rgb(100%,89.803922%,76.078431%);fill-opacity:1;" d="M 53.75 27.164062 L 53.75 30.40625 C 53.75 31.21875 53.472656 32.007812 52.960938 32.636719 L 49.183594 37.285156 L 49.183594 57.136719 C 49.183594 57.804688 48.648438 58.34375 47.992188 58.34375 L 30.011719 58.34375 C 29.351562 58.34375 28.816406 57.804688 28.816406 57.136719 L 28.816406 37.285156 L 25.039062 32.636719 C 24.527344 32.007812 24.25 31.21875 24.25 30.40625 L 24.25 21.300781 L 41.660156 21.097656 C 40.8125 21.097656 40.046875 21.441406 39.492188 22.003906 C 38.941406 22.566406 38.597656 23.339844 38.597656 24.195312 C 38.597656 25.90625 39.96875 27.296875 41.660156 27.296875 Z M 53.75 27.164062 "/>
<path style=" stroke:none;fill-rule:nonzero;fill:rgb(70.980392%,67.843137%,71.372549%);fill-opacity:1;" d="M 10.191406 36.683594 L 3.460938 36.683594 C 2.335938 36.683594 1.425781 35.761719 1.425781 34.621094 L 1.425781 11.164062 C 1.425781 10.023438 2.335938 9.101562 3.460938 9.101562 L 10.191406 9.101562 Z M 10.191406 36.683594 "/>
<path style=" stroke:none;fill-rule:nonzero;fill:rgb(70.980392%,67.843137%,71.372549%);fill-opacity:1;" d="M 67.808594 36.683594 L 74.539062 36.683594 C 75.664062 36.683594 76.574219 35.761719 76.574219 34.621094 L 76.574219 11.164062 C 76.574219 10.023438 75.664062 9.101562 74.539062 9.101562 L 67.808594 9.101562 Z M 67.808594 36.683594 "/>
<path style=" stroke:none;fill-rule:nonzero;fill:rgb(79.607843%,76.862745%,80%);fill-opacity:1;" d="M 11.066406 27.164062 L 11.066406 18.621094 L 67.230469 18.621094 L 67.230469 27.296875 Z M 11.066406 27.164062 "/>
<path style=" stroke:none;fill-rule:nonzero;fill:rgb(99.607843%,82.352941%,64.313725%);fill-opacity:1;" d="M 38.808594 13.761719 L 38.808594 18.367188 C 38.808594 20.1875 37.351562 21.664062 35.550781 21.664062 C 33.753906 21.664062 32.296875 20.1875 32.296875 18.367188 L 32.296875 13.761719 C 32.296875 11.941406 33.753906 10.46875 35.550781 10.46875 C 36.453125 10.46875 37.265625 10.835938 37.855469 11.433594 C 38.445312 12.027344 38.808594 12.851562 38.808594 13.761719 Z M 38.808594 13.761719 "/>
<path style=" stroke:none;fill-rule:nonzero;fill:rgb(99.607843%,82.352941%,64.313725%);fill-opacity:1;" d="M 45.453125 12.695312 L 45.453125 18.070312 C 45.453125 20.191406 43.9375 21.914062 42.066406 21.914062 C 40.195312 21.914062 38.679688 20.191406 38.679688 18.070312 L 38.679688 12.695312 C 38.679688 10.574219 40.195312 8.851562 42.066406 8.851562 C 43 8.851562 43.847656 9.28125 44.460938 9.976562 C 45.074219 10.671875 45.453125 11.632812 45.453125 12.695312 Z M 45.453125 12.695312 "/>
<path style=" stroke:none;fill-rule:nonzero;fill:rgb(99.607843%,82.352941%,64.313725%);fill-opacity:1;" d="M 51.835938 14.226562 L 51.835938 18.832031 C 51.835938 20.652344 50.378906 22.128906 48.578125 22.128906 C 46.78125 22.128906 45.320312 20.652344 45.320312 18.832031 L 45.320312 14.226562 C 45.320312 12.40625 46.78125 10.929688 48.578125 10.929688 C 49.476562 10.929688 50.289062 11.296875 50.882812 11.894531 C 51.472656 12.492188 51.835938 13.316406 51.835938 14.226562 Z M 51.835938 14.226562 "/>
<path style=" stroke:none;fill-rule:nonzero;fill:rgb(99.607843%,82.352941%,64.313725%);fill-opacity:1;" d="M 32.296875 14.6875 L 32.296875 18.367188 C 32.296875 20.1875 30.839844 21.664062 29.039062 21.664062 C 27.242188 21.664062 25.78125 20.1875 25.78125 18.367188 L 25.78125 14.6875 C 25.78125 12.867188 27.242188 11.390625 29.039062 11.390625 C 29.941406 11.390625 30.753906 11.757812 31.34375 12.355469 C 31.929688 12.953125 32.296875 13.777344 32.296875 14.6875 Z M 32.296875 14.6875 "/>
<path style=" stroke:none;fill-rule:nonzero;fill:rgb(100%,74.117647%,52.54902%);fill-opacity:1;" d="M 34.941406 18.367188 L 34.941406 13.761719 C 34.941406 12.421875 35.738281 11.265625 36.878906 10.75 C 36.472656 10.570312 36.023438 10.46875 35.550781 10.46875 C 33.753906 10.46875 32.296875 11.941406 32.296875 13.761719 L 32.296875 18.367188 C 32.296875 20.1875 33.753906 21.664062 35.550781 21.664062 C 36.023438 21.664062 36.476562 21.5625 36.882812 21.378906 C 35.742188 20.867188 34.941406 19.710938 34.941406 18.367188 Z M 34.941406 18.367188 "/>
<path style=" stroke:none;fill-rule:nonzero;fill:rgb(100%,74.117647%,52.54902%);fill-opacity:1;" d="M 41.324219 18.070312 L 41.324219 12.695312 C 41.324219 11.105469 42.175781 9.738281 43.386719 9.15625 C 42.980469 8.960938 42.535156 8.851562 42.066406 8.851562 C 40.195312 8.851562 38.679688 10.574219 38.679688 12.695312 L 38.679688 18.070312 C 38.679688 20.195312 40.195312 21.914062 42.066406 21.914062 C 42.535156 21.914062 42.980469 21.808594 43.386719 21.609375 C 42.175781 21.027344 41.324219 19.660156 41.324219 18.070312 Z M 41.324219 18.070312 "/>
<path style=" stroke:none;fill-rule:nonzero;fill:rgb(100%,74.117647%,52.54902%);fill-opacity:1;" d="M 47.96875 18.832031 L 47.96875 14.226562 C 47.96875 12.882812 48.765625 11.726562 49.90625 11.214844 C 49.5 11.03125 49.050781 10.929688 48.578125 10.929688 C 46.78125 10.929688 45.320312 12.40625 45.320312 14.226562 L 45.320312 18.832031 C 45.320312 20.652344 46.78125 22.125 48.578125 22.125 C 49.050781 22.125 49.496094 22.023438 49.902344 21.839844 C 48.761719 21.328125 47.96875 20.175781 47.96875 18.832031 Z M 47.96875 18.832031 "/>
<path style=" stroke:none;fill-rule:nonzero;fill:rgb(100%,74.117647%,52.54902%);fill-opacity:1;" d="M 28.429688 18.367188 L 28.429688 14.6875 C 28.429688 13.34375 29.226562 12.1875 30.367188 11.675781 C 29.960938 11.492188 29.511719 11.390625 29.039062 11.390625 C 27.242188 11.390625 25.785156 12.867188 25.785156 14.6875 L 25.785156 18.367188 C 25.785156 20.1875 27.242188 21.664062 29.039062 21.664062 C 29.511719 21.664062 29.964844 21.5625 30.367188 21.378906 C 29.230469 20.867188 28.429688 19.710938 28.429688 18.367188 Z M 28.429688 18.367188 "/>
<path style=" stroke:none;fill-rule:nonzero;fill:rgb(100%,89.803922%,76.078431%);fill-opacity:1;" d="M 53.75 23.472656 L 53.75 27.265625 L 41.65625 27.296875 C 39.96875 27.296875 38.597656 25.90625 38.597656 24.195312 C 38.597656 23.339844 38.941406 22.566406 39.492188 22.003906 C 40.046875 21.441406 40.8125 21.097656 41.65625 21.097656 L 51.402344 21.097656 C 52.699219 21.097656 53.75 22.160156 53.75 23.472656 Z M 53.75 23.472656 "/>
<path style=" stroke:none;fill-rule:nonzero;fill:rgb(65.490196%,60.784314%,65.490196%);fill-opacity:1;" d="M 14.894531 44.128906 L 11.433594 44.128906 C 9.664062 44.128906 8.226562 42.675781 8.226562 40.886719 L 8.226562 4.898438 C 8.226562 3.105469 9.664062 1.65625 11.433594 1.65625 L 14.894531 1.65625 C 16.664062 1.65625 18.097656 3.105469 18.097656 4.898438 L 18.097656 40.886719 C 18.097656 42.675781 16.664062 44.128906 14.894531 44.128906 Z M 14.894531 44.128906 "/>
<path style=" stroke:none;fill-rule:nonzero;fill:rgb(65.490196%,60.784314%,65.490196%);fill-opacity:1;" d="M 63.105469 44.128906 L 66.566406 44.128906 C 68.335938 44.128906 69.773438 42.675781 69.773438 40.886719 L 69.773438 4.898438 C 69.773438 3.105469 68.335938 1.65625 66.566406 1.65625 L 63.105469 1.65625 C 61.335938 1.65625 59.902344 3.105469 59.902344 4.898438 L 59.902344 40.886719 C 59.902344 42.675781 61.335938 44.128906 63.105469 44.128906 Z M 63.105469 44.128906 "/>
<path style=" stroke:none;fill-rule:nonzero;fill:rgb(0%,0%,0%);fill-opacity:1;" d="M 74.539062 7.953125 L 70.90625 7.953125 L 70.90625 4.898438 C 70.90625 2.476562 68.960938 0.507812 66.566406 0.507812 L 63.105469 0.507812 C 60.714844 0.507812 58.769531 2.476562 58.769531 4.898438 L 58.769531 17.472656 L 52.96875 17.472656 L 52.96875 14.097656 C 52.96875 11.648438 51 9.65625 48.578125 9.65625 C 47.628906 9.65625 46.746094 9.964844 46.027344 10.484375 C 45.320312 8.988281 43.8125 7.953125 42.066406 7.953125 C 40.417969 7.953125 38.976562 8.878906 38.226562 10.246094 C 37.484375 9.667969 36.558594 9.320312 35.554688 9.320312 C 34.027344 9.320312 32.679688 10.113281 31.894531 11.316406 C 31.125 10.648438 30.128906 10.246094 29.039062 10.246094 C 26.621094 10.246094 24.652344 12.238281 24.652344 14.6875 L 24.652344 17.472656 L 19.234375 17.472656 L 19.234375 14.234375 C 19.234375 13.601562 18.726562 13.089844 18.101562 13.089844 C 17.472656 13.089844 16.964844 13.601562 16.964844 14.234375 L 16.964844 40.886719 C 16.964844 42.042969 16.035156 42.984375 14.894531 42.984375 L 11.433594 42.984375 C 10.289062 42.984375 9.359375 42.042969 9.359375 40.886719 L 9.359375 4.898438 C 9.359375 3.742188 10.289062 2.800781 11.433594 2.800781 L 14.894531 2.800781 C 16.035156 2.800781 16.964844 3.742188 16.964844 4.898438 L 16.964844 9.347656 C 16.964844 9.980469 17.472656 10.492188 18.097656 10.492188 C 18.726562 10.492188 19.234375 9.980469 19.234375 9.347656 L 19.234375 4.898438 C 19.234375 2.476562 17.285156 0.507812 14.894531 0.507812 L 11.433594 0.507812 C 9.039062 0.507812 7.09375 2.476562 7.09375 4.898438 L 7.09375 7.953125 L 3.460938 7.953125 C 1.714844 7.953125 0.292969 9.394531 0.292969 11.164062 L 0.292969 34.621094 C 0.292969 36.390625 1.714844 37.832031 3.460938 37.832031 L 7.09375 37.832031 L 7.09375 40.886719 C 7.09375 43.308594 9.039062 45.277344 11.433594 45.277344 L 14.894531 45.277344 C 17.285156 45.277344 19.234375 43.308594 19.234375 40.886719 L 19.234375 28.3125 L 23.117188 28.3125 L 23.117188 30.40625 C 23.117188 31.480469 23.488281 32.53125 24.164062 33.363281 L 27.683594 37.695312 L 27.683594 58.34375 C 27.683594 58.980469 28.191406 59.492188 28.816406 59.492188 C 29.441406 59.492188 29.949219 58.980469 29.949219 58.34375 L 29.949219 37.285156 C 29.949219 37.019531 29.859375 36.761719 29.691406 36.554688 L 25.914062 31.90625 C 25.570312 31.484375 25.382812 30.953125 25.382812 30.40625 L 25.382812 28.3125 L 46.816406 28.441406 C 47.441406 28.441406 47.949219 27.929688 47.949219 27.296875 C 47.949219 26.664062 47.441406 26.148438 46.816406 26.148438 L 41.660156 26.148438 C 40.59375 26.148438 39.730469 25.273438 39.730469 24.195312 C 39.730469 23.121094 40.59375 22.242188 41.660156 22.242188 L 51.402344 22.242188 C 52.074219 22.242188 52.617188 22.792969 52.617188 23.472656 L 52.617188 30.40625 C 52.617188 30.953125 52.429688 31.484375 52.085938 31.90625 L 48.308594 36.554688 C 48.140625 36.761719 48.050781 37.019531 48.050781 37.285156 L 48.050781 40.308594 C 48.050781 40.945312 48.558594 41.457031 49.183594 41.457031 C 49.808594 41.457031 50.316406 40.945312 50.316406 40.308594 L 50.316406 37.695312 L 53.835938 33.363281 C 54.511719 32.53125 54.882812 31.480469 54.882812 30.40625 L 54.882812 28.308594 L 58.765625 28.308594 L 58.765625 40.886719 C 58.765625 43.308594 60.714844 45.277344 63.105469 45.277344 L 66.566406 45.277344 C 68.960938 45.277344 70.90625 43.308594 70.90625 40.886719 L 70.90625 37.832031 L 74.539062 37.832031 C 76.285156 37.832031 77.707031 36.390625 77.707031 34.621094 L 77.707031 11.164062 C 77.710938 9.394531 76.285156 7.953125 74.539062 7.953125 Z M 3.460938 35.535156 C 2.964844 35.535156 2.558594 35.125 2.558594 34.621094 L 2.558594 11.164062 C 2.558594 10.660156 2.964844 10.25 3.460938 10.25 L 7.09375 10.25 L 7.09375 35.535156 Z M 48.578125 11.949219 C 49.75 11.949219 50.703125 12.914062 50.703125 14.097656 L 50.703125 18.367188 C 50.703125 18.972656 50.449219 19.542969 50.011719 19.949219 L 47.144531 19.949219 C 46.707031 19.542969 46.453125 18.972656 46.453125 18.367188 L 46.453125 14.097656 C 46.453125 12.914062 47.40625 11.949219 48.578125 11.949219 Z M 39.941406 12.398438 C 39.941406 11.210938 40.894531 10.25 42.066406 10.25 C 43.234375 10.25 44.1875 11.210938 44.1875 12.398438 L 44.1875 18.367188 C 44.1875 18.972656 43.933594 19.542969 43.5 19.949219 L 41.660156 19.949219 C 41.347656 19.949219 41.042969 19.984375 40.746094 20.050781 C 40.242188 19.648438 39.941406 19.035156 39.941406 18.367188 Z M 33.429688 13.765625 C 33.429688 12.578125 34.382812 11.613281 35.550781 11.613281 C 36.722656 11.613281 37.675781 12.578125 37.675781 13.765625 L 37.675781 18.367188 C 37.675781 19.554688 36.722656 20.519531 35.550781 20.519531 C 34.382812 20.519531 33.429688 19.554688 33.429688 18.367188 Z M 26.917969 14.6875 C 26.917969 13.503906 27.871094 12.539062 29.039062 12.539062 C 30.210938 12.539062 31.164062 13.503906 31.164062 14.6875 L 31.164062 18.367188 C 31.164062 19.554688 30.210938 20.519531 29.039062 20.519531 C 27.871094 20.519531 26.917969 19.554688 26.917969 18.367188 Z M 19.234375 19.769531 L 24.875 19.769531 C 25.457031 21.535156 27.101562 22.8125 29.039062 22.8125 C 30.332031 22.8125 31.492188 22.246094 32.296875 21.34375 C 33.101562 22.246094 34.261719 22.8125 35.554688 22.8125 C 36.488281 22.8125 37.351562 22.511719 38.066406 22.003906 C 37.683594 22.644531 37.464844 23.394531 37.464844 24.195312 C 37.464844 24.847656 37.609375 25.464844 37.867188 26.015625 L 19.234375 26.015625 Z M 54.882812 26.015625 L 54.882812 23.472656 C 54.882812 21.953125 53.929688 20.65625 52.59375 20.160156 C 52.648438 20.03125 52.699219 19.902344 52.742188 19.769531 L 58.769531 19.769531 L 58.769531 26.015625 Z M 75.441406 34.621094 C 75.441406 35.125 75.035156 35.535156 74.539062 35.535156 L 70.90625 35.535156 L 70.90625 32.222656 C 70.90625 31.585938 70.398438 31.074219 69.773438 31.074219 C 69.148438 31.074219 68.640625 31.585938 68.640625 32.222656 L 68.640625 40.886719 C 68.640625 42.042969 67.710938 42.984375 66.566406 42.984375 L 63.105469 42.984375 C 61.964844 42.984375 61.035156 42.042969 61.035156 40.886719 L 61.035156 4.898438 C 61.035156 3.742188 61.964844 2.800781 63.105469 2.800781 L 66.566406 2.800781 C 67.710938 2.800781 68.640625 3.742188 68.640625 4.898438 L 68.640625 27.332031 C 68.640625 27.964844 69.148438 28.480469 69.773438 28.480469 C 70.398438 28.480469 70.90625 27.964844 70.90625 27.332031 L 70.90625 10.25 L 74.539062 10.25 C 75.035156 10.25 75.441406 10.660156 75.441406 11.164062 Z M 75.441406 34.621094 "/>
<path style=" stroke:none;fill-rule:nonzero;fill:rgb(0%,0%,0%);fill-opacity:1;" d="M 49.183594 44.050781 C 48.558594 44.050781 48.050781 44.566406 48.050781 45.199219 L 48.050781 58.34375 C 48.050781 58.980469 48.558594 59.492188 49.183594 59.492188 C 49.808594 59.492188 50.316406 58.980469 50.316406 58.34375 L 50.316406 45.199219 C 50.316406 44.566406 49.808594 44.050781 49.183594 44.050781 Z M 49.183594 44.050781 "/>
</g>
</svg>
