<svg width="64" height="64" viewBox="0 0 64 64" fill="none" xmlns="http://www.w3.org/2000/svg">
<rect width="64" height="64" fill="#EE3524"/>
<path d="M32 10.6666C34.8169 10.6666 35.7246 12.7534 36.4757 14.8402C36.7887 15.707 44.144 36.3822 44.3631 36.9922C44.4257 37.1527 44.3944 37.4416 44.1127 37.538C43.831 37.6343 40.0438 39.1753 39.8247 39.2395C39.6056 39.3037 39.3865 39.2074 39.2927 38.9827C39.1988 38.7579 37.6338 34.2633 37.446 33.7817C36.9139 33.7817 27.0861 33.7817 26.554 33.7817C26.3662 34.2954 24.77 38.79 24.7074 38.9827C24.6448 39.1753 24.3944 39.3358 24.1753 39.2395C23.9562 39.1432 20.1064 37.6343 19.8873 37.538C19.6682 37.4416 19.5743 37.1848 19.6369 36.9922C19.9186 36.2217 27.1487 15.8996 27.5243 14.8402C28.2441 12.7855 29.1831 10.6666 32 10.6666ZM19.0736 47.6187C18.8545 47.6187 18.6667 47.8113 18.6667 48.0682V52.8838C18.6667 53.1407 18.8545 53.3333 19.0736 53.3333H44.9265C45.1455 53.3333 45.3333 53.1407 45.3333 52.8838V48.0682C45.3333 47.8113 45.1455 47.6187 44.9265 47.6187H19.0736ZM32 17.4085L28.3067 28.7414H35.7246L32.0313 17.4085H32Z" fill="white"/>
</svg>
