<svg width="48" height="48" viewBox="0 0 48 48" fill="none" xmlns="http://www.w3.org/2000/svg">
<rect width="48" height="48" fill="#354148"/>
<path fill-rule="evenodd" clip-rule="evenodd" d="M18.9474 24.4799H23.9999V12.3196H18.9474V24.4799ZM20.2665 23.1311H22.6809V13.6674H20.2665V23.1311ZM12.8841 27.5202H36.1257V26.5055H12.8841V27.5202ZM12.8841 36.6402H14.2377V35.0466H21.9791V29.5458H12.8831V36.6402H12.8841ZM14.2377 33.6402H20.6255V30.9532H14.2367V33.6402H14.2377ZM27.3868 16.365L29.8857 13.6674V24.4799H31.2508V16.3641L33.7497 13.6684V24.4799H35.1158V12.3196H33.1967L31.2498 14.4143V12.3196H29.3327L26.0207 15.8543V24.4799H27.3858L27.3868 16.365ZM22.989 35.0457H28.3065V36.6393H29.7705V35.0457H35.1158V29.5468H22.989V35.0457ZM29.7705 33.6402H33.7122V30.9532H29.7705V33.6402ZM24.3945 33.6402H28.3065V30.9532H24.3935V33.6402H24.3945ZM16.6175 24.4799H17.9366V12.3196H16.0838L12.8841 15.8543V24.4799H16.6175ZM14.2041 16.365L16.6175 13.6674V23.1311H14.2041V16.365Z" fill="#FEFEFE"/>
</svg>
