<svg width="16" height="16" viewBox="0 0 16 16" fill="none" xmlns="http://www.w3.org/2000/svg">
<path d="M14.0027 5.31665V3.99998C14.0027 2.52931 12.8067 1.33331 11.336 1.33331H4.66933C3.19866 1.33331 2.00266 2.52931 2.00266 3.99998V5.33198C1.97399 5.33331 1.95199 5.33465 1.95199 5.33465C1.60266 5.35998 1.33333 5.64998 1.33333 5.99998V7.33331C1.33333 7.70131 1.63133 7.99998 1.99999 7.99998H2.00266V12C2.00266 12.49 2.27133 12.9146 2.66666 13.1466V14C2.66666 14.3686 2.96466 14.6666 3.33333 14.6666H3.99999C4.36866 14.6666 4.66666 14.3686 4.66666 14V13.3333H11.3333V14C11.3333 14.3686 11.6313 14.6666 12 14.6666H12.6667C13.0353 14.6666 13.3333 14.3686 13.3333 14V13.1493C13.7313 12.918 14.0027 12.4926 14.0027 12V7.99998C14.3713 7.99998 14.6693 7.70131 14.6693 7.33331V6.04131C14.6767 5.93931 14.6613 5.83531 14.6213 5.73798C14.486 5.41331 14.198 5.33531 14.0027 5.31665ZM12.6707 12H12.6667H12H3.99999H3.336V8.66665H7.33599H8.66933H12.67L12.6707 12ZM7.33599 4.66665V7.33331H3.336V4.66665H7.33599ZM12.6693 4.66665V5.99865C12.6693 5.99931 12.6693 5.99931 12.6693 5.99998V7.33331H8.66933V4.66665H12.6693ZM4.66933 2.66665H11.336C11.8267 2.66665 12.2527 2.93665 12.484 3.33331H3.52133C3.75266 2.93665 4.17866 2.66665 4.66933 2.66665Z" fill="#F7F8FC" fill-opacity="0.54"/>
<path d="M5 11.3333C5.55228 11.3333 6 10.8856 6 10.3333C6 9.78103 5.55228 9.33331 5 9.33331C4.44772 9.33331 4 9.78103 4 10.3333C4 10.8856 4.44772 11.3333 5 11.3333Z" fill="#F7F8FC" fill-opacity="0.54"/>
<path d="M11 11.3333C11.5523 11.3333 12 10.8856 12 10.3333C12 9.78103 11.5523 9.33331 11 9.33331C10.4477 9.33331 10 9.78103 10 10.3333C10 10.8856 10.4477 11.3333 11 11.3333Z" fill="#F7F8FC" fill-opacity="0.54"/>
</svg>
