<svg width="16" height="16" viewBox="0 0 16 16" fill="none" xmlns="http://www.w3.org/2000/svg">
<path d="M8.66665 4C9.40303 4 9.99998 3.40304 9.99998 2.66667C9.99998 1.93029 9.40303 1.33333 8.66665 1.33333C7.93027 1.33333 7.33331 1.93029 7.33331 2.66667C7.33331 3.40304 7.93027 4 8.66665 4Z" fill="#78859B"/>
<path d="M9.31869 8.18C9.48203 8.42533 9.72603 8.61133 10.006 8.70466L11.7894 9.29933L12.2114 8.03533L10.428 7.44066L9.31936 5.77733C9.19136 5.58533 9.01469 5.43 8.80669 5.32466L7.85069 4.84666C7.56736 4.70533 7.24203 4.66866 6.93203 4.74733L4.80336 5.27866C4.42603 5.37266 4.10869 5.626 3.93269 5.976L2.73669 8.36866L3.92936 8.96533L5.12536 6.57266L6.60736 6.202L5.40469 11.766L2.95536 13.4507L3.71069 14.5493L6.16069 12.864C6.44136 12.6707 6.63603 12.3807 6.70736 12.0473L7.05203 10.4553L8.73003 11.714L9.34669 14.7973L10.654 14.5353L10.0374 11.4507C9.97136 11.128 9.79136 10.842 9.52936 10.6467L8.08203 9.56133L8.51336 6.97133L9.31869 8.18Z" fill="#78859B"/>
</svg>
