<svg width="18" height="19" viewBox="0 0 18 19" fill="none" xmlns="http://www.w3.org/2000/svg">
<path d="M14.9738 6.89075C14.991 6.76025 15 6.62975 15 6.5C15 4.71575 13.3928 3.284 11.6093 3.52625C11.0895 2.6015 10.0995 2 9 2C7.9005 2 6.9105 2.6015 6.39075 3.52625C4.6035 3.284 3 4.71575 3 6.5C3 6.62975 3.009 6.76025 3.02625 6.89075C2.1015 7.41125 1.5 8.40125 1.5 9.5C1.5 10.5988 2.1015 11.5887 3.02625 12.1093C3.009 12.2397 3 12.3702 3 12.5C3 14.2843 4.6035 15.7122 6.39075 15.4738C6.9105 16.3985 7.9005 17 9 17C10.0995 17 11.0895 16.3985 11.6093 15.4738C13.3928 15.7122 15 14.2843 15 12.5C15 12.3702 14.991 12.2397 14.9738 12.1093C15.8985 11.5887 16.5 10.5988 16.5 9.5C16.5 8.40125 15.8985 7.41125 14.9738 6.89075ZM8.21625 12.812L5.466 10.0265L6.534 8.9735L8.22675 10.688L11.472 7.4675L12.528 8.5325L8.21625 12.812Z" fill="#5AB677"/>
</svg>
