<svg width="33" height="32" viewBox="0 0 33 32" fill="none" xmlns="http://www.w3.org/2000/svg">
<path d="M0 4.13892C0 1.92978 1.79086 0.138916 4 0.138916H24.0314C26.2406 0.138916 28.0314 1.92978 28.0314 4.13892V24.1704C28.0314 26.3795 26.2406 28.1704 24.0314 28.1704H4C1.79086 28.1704 0 26.3795 0 24.1704V4.13892Z" fill="#5AB677"/>
<rect x="14.0159" y="19.4727" width="8.75982" height="17.5196" rx="2" transform="rotate(-45 14.0159 19.4727)" fill="#5AB677"/>
<path fill-rule="evenodd" clip-rule="evenodd" d="M21.0236 12.2061C21.0236 12.2061 21.0236 12.2061 21.0236 12.2061L15.3997 6.9078C14.6306 6.18325 13.4306 6.18194 12.66 6.90481L7.00827 12.2061C7.00825 12.2061 7.00822 12.2061 7.00818 12.2061C7.00811 12.2061 7.00806 12.2062 7.00806 12.2063V12.2063V19.1679C7.00806 20.2725 7.90349 21.1679 9.00806 21.1679H19.0238C20.1283 21.1679 21.0238 20.2725 21.0238 19.1679V12.2063V12.2063C21.0238 12.2062 21.0237 12.2061 21.0236 12.2061Z" fill="white"/>
</svg>
