<svg width="48" height="48" viewBox="0 0 48 48" fill="none" xmlns="http://www.w3.org/2000/svg">
<rect width="48" height="48" fill="#3C5186"/>
<path fill-rule="evenodd" clip-rule="evenodd" d="M24.6241 17.1936C24.8929 17.1706 25.1598 17.2109 25.4094 17.3088L25.3518 9.78436H26.2522C26.211 12.3514 26.3041 14.9204 26.5306 17.4778C30.8266 18.5146 34.0954 22.0032 34.8538 26.3559C35.6122 30.7095 33.7114 35.0967 30.0212 37.5245C29.9636 37.4669 29.8522 37.297 29.7428 37.1808C26.5431 32.9876 25.7521 26.713 25.5313 21.2698C25.9758 21.3754 26.427 21.4522 26.881 21.5021C27.5434 26.1197 29.5594 30.4359 32.6737 33.9072C35.0017 30.9581 34.8116 26.7456 32.2263 24.0192C30.8478 22.489 29.0535 21.3917 27.0615 20.8628C26.1265 20.6295 25.1655 20.5143 24.2007 20.5191C23.2369 20.521 22.2759 20.6362 21.3399 20.8628C17.1812 21.9572 14.0938 25.2884 14.0938 29.2484C14.1226 30.9245 14.6718 32.5508 15.6634 33.9015C18.7969 30.4436 20.8138 26.1197 21.4503 21.4964C21.9207 21.4426 22.3882 21.3648 22.8519 21.264C22.6244 26.7188 21.8401 32.8954 18.6414 37.1175V37.0599C18.5425 37.2231 18.4302 37.3767 18.3034 37.5188C14.6631 35.0448 12.818 30.6615 13.5946 26.329C14.3722 21.9965 17.6247 18.5261 21.8986 17.472C22.177 11.8426 22.1242 9.7786 22.1242 9.7786H23.0199L22.9623 17.305C23.1927 17.209 23.4423 17.1706 23.689 17.1869V6.10852H24.625V17.1936H24.6241ZM24.6817 21.2112C24.793 26.4452 25.13 32.9876 26.8167 37.4064C26.9857 37.8672 27.265 38.3856 27.4916 38.8445C26.4135 39.1613 25.299 39.3341 24.1767 39.3629C23.0535 39.3437 21.937 39.169 20.8618 38.8445C21.1422 38.2628 21.3687 37.7501 21.5953 37.2394C23.1658 32.8714 23.619 26.3818 23.6718 21.2122H24.6836L24.6817 21.2112Z" fill="white"/>
</svg>
