<svg width="12" height="12" viewBox="0 0 12 12" fill="none" xmlns="http://www.w3.org/2000/svg">
<path d="M6.00001 3C4.91551 3 4.03301 3.8825 4.03301 4.967H5.03301C5.03301 4.4335 5.46701 4 6.00001 4C6.53301 4 6.96701 4.4335 6.96701 4.967C6.96701 5.266 6.72651 5.483 6.35901 5.78C6.23151 5.8835 6.11101 5.982 6.01351 6.0795C5.51451 6.578 5.50001 7.1075 5.50001 7.1665V7.5H6.50001L6.49951 7.1835C6.50001 7.1755 6.51601 6.9905 6.72001 6.787C6.79501 6.712 6.88951 6.637 6.98751 6.558C7.37701 6.2425 7.96651 5.766 7.96651 4.967C7.96701 3.8825 7.08451 3 6.00001 3ZM5.50001 8H6.50001V9H5.50001V8Z" fill="#38424E"/>
<path d="M6 1C3.243 1 1 3.243 1 6C1 8.757 3.243 11 6 11C8.757 11 11 8.757 11 6C11 3.243 8.757 1 6 1ZM6 10C3.7945 10 2 8.2055 2 6C2 3.7945 3.7945 2 6 2C8.2055 2 10 3.7945 10 6C10 8.2055 8.2055 10 6 10Z" fill="#38424E"/>
</svg>
