<svg width="60" height="25" viewBox="0 0 60 25" fill="none" xmlns="http://www.w3.org/2000/svg">
<path d="M16.2675 15.9109L19.115 18.8305L15.178 19.4243L13.7914 17.8408C12.4873 18.5501 11.0429 18.9047 9.45826 18.9047C6.553 18.9047 4.2585 17.9975 2.57476 16.1831C1.02309 14.5336 0.247253 12.546 0.247253 10.2202C0.247253 9.06554 0.4701 7.96039 0.915794 6.90472C1.37799 5.83255 2.00527 4.91708 2.79761 4.15832C4.51436 2.49234 6.69331 1.65935 9.33445 1.65935C10.556 1.65935 11.7445 1.87378 12.9 2.30265C14.0555 2.71502 15.0542 3.32533 15.8961 4.13358C17.5963 5.76657 18.4464 7.83668 18.4464 10.3439C18.4464 11.515 18.2236 12.6202 17.7779 13.6594C17.4147 14.5336 16.9112 15.2841 16.2675 15.9109ZM8.02213 11.9521L12.0581 11.4326L13.1971 12.6697C13.7089 11.9439 13.9647 11.1356 13.9647 10.2449C13.9647 9.73359 13.8409 9.1975 13.5933 8.63668C13.3622 8.07585 13.0403 7.58925 12.6276 7.17688C12.1984 6.74801 11.6785 6.41812 11.0677 6.18719C10.4734 5.93977 9.8957 5.81605 9.33445 5.81605C8.03039 5.81605 6.94091 6.26966 6.06603 7.17688C5.17464 8.10059 4.72895 9.20575 4.72895 10.4923C4.72895 11.6965 5.14163 12.6944 5.96699 13.4862C6.84187 14.3274 7.9561 14.748 9.30969 14.748C9.73888 14.748 10.1846 14.6903 10.6468 14.5748L8.02213 11.9521Z" fill="#F7F8FC"/>
<path d="M28.9055 8.53771V7.47379H32.8672V18.5336H28.9055V17.3212C28.1462 18.3769 26.9989 18.9047 25.4638 18.9047C23.9121 18.9047 22.5833 18.3192 21.4773 17.148C20.4208 16.0264 19.8926 14.6738 19.8926 13.0903C19.8926 11.2759 20.4621 9.79956 21.6011 8.66142C22.641 7.62224 23.9699 7.10265 25.5876 7.10265C26.9412 7.10265 28.0471 7.58101 28.9055 8.53771ZM26.479 10.4676C25.8187 10.4676 25.2409 10.7068 24.7457 11.1851C24.2175 11.6965 23.9534 12.2985 23.9534 12.9913C23.9534 13.7171 24.2092 14.3192 24.7209 14.7975C25.2492 15.2924 25.8434 15.5398 26.5037 15.5398C27.1805 15.5398 27.7748 15.2841 28.2865 14.7728C28.7817 14.2779 29.0293 13.6841 29.0293 12.9913C29.0293 12.282 28.7735 11.68 28.2617 11.1851C27.75 10.7068 27.1558 10.4676 26.479 10.4676Z" fill="#F7F8FC"/>
<path d="M35.3733 24.1996L39.0874 17.0243L33.7391 7.47379H38.3446L41.2911 13.1398L44.1634 7.47379H48.6946L39.8055 24.1996H35.3733Z" fill="#F7F8FC"/>
<path d="M49.5492 0.49646H53.5109V18.5336H49.5492V0.49646Z" fill="#F7F8FC"/>
<path d="M55.7036 7.47379H59.6653V18.5336H55.7036V7.47379ZM56.0998 4.45523C55.6706 4.00987 55.456 3.48203 55.456 2.87172C55.456 2.26141 55.6706 1.74182 56.0998 1.31296C56.5455 0.867594 57.0737 0.644913 57.6845 0.644913C58.2952 0.644913 58.8152 0.867594 59.2444 1.31296C59.6901 1.74182 59.9129 2.26141 59.9129 2.87172C59.9129 3.48203 59.6901 4.00987 59.2444 4.45523C58.8152 4.88409 58.2952 5.09853 57.6845 5.09853C57.0737 5.09853 56.5455 4.88409 56.0998 4.45523Z" fill="#F7F8FC"/>
</svg>
