<svg width="64" height="64" viewBox="0 0 64 64" fill="none" xmlns="http://www.w3.org/2000/svg">
<rect width="64" height="64" fill="#1E4679"/>
<path fill-rule="evenodd" clip-rule="evenodd" d="M29.1704 22.6667C29.3067 22.6667 29.3703 22.544 29.3112 22.3906L29.0092 21.6095C28.9502 21.4589 28.7912 21.3334 28.655 21.3334H17.4962C17.3599 21.3334 17.2963 21.4561 17.3554 21.6095L17.6574 22.3906C17.7164 22.5412 17.8754 22.6667 18.0117 22.6667H29.1704Z" fill="#FEFEFE"/>
<path fill-rule="evenodd" clip-rule="evenodd" d="M29.0453 24.2762C28.9928 24.1255 28.8515 24 28.7304 24H18.8115C18.6903 24 18.6338 24.1255 18.6863 24.2762L18.9548 25.0572C19.0073 25.2078 19.1485 25.3333 19.2697 25.3333H29.1886C29.3097 25.3333 29.3662 25.2106 29.3137 25.0572L29.0453 24.2762Z" fill="#FEFEFE"/>
<path fill-rule="evenodd" clip-rule="evenodd" d="M32.9733 26.9428C32.9077 26.7921 32.7311 26.6666 32.5798 26.6666H20.1809C20.0296 26.6666 19.9589 26.7894 20.0245 26.9428L20.3626 27.7238C20.4281 27.8744 20.6047 28 20.7561 28H33.1524C33.3038 28 33.3744 27.8772 33.3088 27.7238L32.9733 26.9428Z" fill="#FEFEFE"/>
<path fill-rule="evenodd" clip-rule="evenodd" d="M34.3065 29.6095C34.2409 29.4589 34.0643 29.3334 33.9129 29.3334H21.5143C21.3629 29.3334 21.2922 29.4561 21.3578 29.6095L21.6934 30.3906C21.759 30.5412 21.9356 30.6667 22.087 30.6667H34.4857C34.6371 30.6667 34.7077 30.544 34.6421 30.3906L34.3065 29.6095Z" fill="#FEFEFE"/>
<path fill-rule="evenodd" clip-rule="evenodd" d="M35.6399 32.5535C35.5743 32.2516 35.3977 32 35.2463 32H22.8476C22.6963 32 22.6256 32.246 22.6912 32.5535L23.0268 34.1188C23.0924 34.4207 23.269 34.6667 23.4204 34.6667H35.8191C35.9704 34.6667 36.0411 34.4207 35.9755 34.1188L35.6399 32.5535Z" fill="#FEFEFE"/>
<path fill-rule="evenodd" clip-rule="evenodd" d="M46.6667 34.6667C48.1375 34.6667 49.3333 33.4708 49.3333 32C49.3333 30.5292 48.1397 29.3334 46.6667 29.3334C45.1936 29.3334 44 30.527 44 32C44 33.4708 45.1914 34.6667 46.6667 34.6667Z" fill="#EE3142"/>
<path fill-rule="evenodd" clip-rule="evenodd" d="M33.0739 18.6667C33.2167 18.6667 33.3334 18.5297 33.3334 18.362V17.6381C33.3334 17.4703 33.2167 17.3334 33.0739 17.3334H14.9261C14.7833 17.3334 14.6667 17.4703 14.6667 17.6381V18.362C14.6667 18.5297 14.7833 18.6667 14.9261 18.6667H33.0739Z" fill="#FEFEFE"/>
<path fill-rule="evenodd" clip-rule="evenodd" d="M24.1666 36C24.0272 36 23.9622 36.0893 24.0226 36.1988L31.234 49.2512C31.2944 49.3607 31.4407 49.3607 31.5011 49.2512L38.09 37.1685C38.1504 37.059 38.313 36.9677 38.4524 36.9677H49.0802C49.2195 36.9677 49.3333 36.8683 49.3333 36.7465V36.2211C49.3333 36.0994 49.2195 36 49.0802 36H24.1666Z" fill="#FEFEFE"/>
<path fill-rule="evenodd" clip-rule="evenodd" d="M49.094 17.3334H40.3828C40.2499 17.3334 40.1413 17.4521 40.1413 17.5975V18.2251C40.1413 18.3705 40.2499 18.4893 40.3828 18.4893H41.6748C41.9961 18.5111 43.8509 18.5208 43.144 20.8882L37.3536 34.4268C37.2982 34.5577 37.3602 34.6667 37.4932 34.6667H39.4721C39.605 34.6667 39.7601 34.5577 39.8178 34.4268L46.0691 20.1322C46.355 19.4876 46.6985 19.0514 47.0995 18.8261C47.5006 18.6031 48.0236 18.4868 48.7062 18.4868H49.0917C49.2247 18.4868 49.3333 18.3681 49.3333 18.2227V17.5951C49.3355 17.4521 49.2269 17.3334 49.094 17.3334Z" fill="#FEFEFE"/>
</svg>
