<svg width="14" height="14" viewBox="0 0 14 14" fill="none" xmlns="http://www.w3.org/2000/svg">
<rect width="14" height="14" fill="black"/>
<path d="M2.88753 4.46799C3.70784 4.46799 4.38049 3.80081 4.38049 2.97502C4.38049 2.14924 3.71331 1.48206 2.88753 1.48206C2.06174 1.48206 1.40002 2.15471 1.40002 2.97502C1.40002 3.79534 2.06721 4.46799 2.88753 4.46799ZM2.88753 2.05081C3.39612 2.05081 3.81721 2.46643 3.81721 2.98049C3.81721 3.49456 3.40159 3.91018 2.88753 3.91018C2.37346 3.91018 1.95784 3.49456 1.95784 2.98049C1.95784 2.46643 2.37893 2.05081 2.88753 2.05081Z" fill="white"/>
<path d="M4.65388 6.19613C4.50076 6.18519 4.36404 6.3055 4.3531 6.45863L4.12341 9.73441C4.12341 9.74535 4.11794 9.75082 4.11794 9.76175L3.91013 12.95C3.90466 13.0703 3.80076 13.1688 3.68044 13.1688H2.09451C1.97419 13.1688 1.87029 13.0758 1.86482 12.95L1.65701 9.76175C1.65154 9.64691 1.56951 9.543 1.46013 9.51019C1.39998 9.49378 1.22498 9.4391 1.19763 9.41175C1.17576 9.37894 1.16482 9.20394 1.15935 9.11644L0.967944 5.73675V5.73128C1.32341 5.62738 1.67341 5.51253 2.02888 5.39769C2.18748 5.58363 2.34607 5.7641 2.51013 5.95003L2.67966 6.14144C2.73435 6.2016 2.81091 6.23988 2.89294 6.23988C2.97497 6.23988 3.05154 6.20707 3.10622 6.14144L3.3031 5.91722C3.46169 5.73675 3.60935 5.56722 3.75701 5.39222L6.20701 5.94457C6.24529 5.9555 6.28904 5.9555 6.32732 5.94457L8.53669 5.49066C8.68982 5.45785 8.78826 5.31019 8.75544 5.15707C8.72263 5.00394 8.57497 4.9055 8.42185 4.93832L6.27263 5.38128L3.85544 4.83441C3.84451 4.82894 3.8281 4.82894 3.81716 4.82894C3.74607 4.82347 3.50544 4.818 3.35779 4.993C3.20466 5.17347 3.05154 5.34847 2.89294 5.52894C2.73435 5.34847 2.58122 5.17347 2.4281 4.993C2.28591 4.82894 2.10544 4.77425 1.90857 4.83988C1.53123 4.96566 1.15388 5.08597 0.776538 5.20082C0.535913 5.27738 0.404663 5.45785 0.404663 5.70394C0.404663 5.72035 0.404663 5.7641 0.404663 5.76957L0.590601 9.1055L0.596069 9.16019C0.628882 9.64691 0.699975 9.83285 1.11013 9.99144L1.30701 12.9938C1.33435 13.4094 1.68435 13.7375 2.09998 13.7375H3.68591C4.10154 13.7375 4.45154 13.4094 4.47888 12.9938L4.68669 9.83285C4.68669 9.82191 4.68669 9.81644 4.69216 9.8055L4.92185 6.50238C4.92185 6.34378 4.80701 6.20707 4.65388 6.19613Z" fill="white"/>
<path d="M13.3164 0.262512H2.88752C2.7344 0.262512 2.60315 0.388293 2.60315 0.546887C2.60315 0.705481 2.72893 0.831262 2.88752 0.831262H13.0321V8.15939H5.55081C5.39768 8.15939 5.26643 8.28517 5.26643 8.44376C5.26643 8.59689 5.39221 8.72814 5.55081 8.72814H13.3164C13.4696 8.72814 13.6008 8.60236 13.6008 8.44376V0.546887C13.6008 0.393762 13.475 0.262512 13.3164 0.262512Z" fill="white"/>
</svg>
