<svg width="23" height="23" viewBox="0 0 23 23" fill="none" xmlns="http://www.w3.org/2000/svg">
<g clip-path="url(#clip0_322_89)">
<path d="M11.5 8.95472C11.5 7.93873 12.3814 7.11511 13.4688 7.11511H15.1562C15.6222 7.11511 16 7.4681 16 7.90352C16 8.33893 15.6222 8.69192 15.1562 8.69192H13.4688C13.3134 8.69192 13.1875 8.80955 13.1875 8.95472V10.5315C13.1875 10.6767 13.3134 10.7943 13.4688 10.7943H14.0312C15.1186 10.7943 16 11.618 16 12.6339V14.2108C16 15.2267 15.1186 16.0504 14.0312 16.0504H12.3438C11.8778 16.0504 11.5 15.6974 11.5 15.262C11.5 14.8266 11.8778 14.4736 12.3438 14.4736H14.0312C14.1866 14.4736 14.3125 14.3559 14.3125 14.2108V12.6339C14.3125 12.4888 14.1866 12.3711 14.0312 12.3711H13.4688C12.3814 12.3711 11.5 11.5475 11.5 10.5315V8.95472Z" fill="white"/>
<path d="M11 8.10796C11 7.6115 11 7.11513 10.5 7.11511C10 7.1151 10.5 7.11522 10 7.11517C9.5 7.11513 9.5 7.61152 9.5 8.10796V11.0864V14.2108C9.5 14.356 8.91085 14.4736 8.77828 14.4736H7.72C7.32236 14.4736 7 14.8266 7 15.262C7 15.6974 7.32236 16.0504 7.72 16.0504H8.92C9.84784 16.0504 11 16.0504 11 14.2108V8.10796Z" fill="white"/>
<path d="M19.2803 23.0001H3.81589C1.70711 23.0001 0 21.3123 0 19.2274V3.93819C0 1.8533 1.70711 0.165527 3.81589 0.165527H19.1799C21.2887 0.165527 22.9958 1.8533 22.9958 3.93819V19.1281C23.0962 21.3123 21.3891 23.0001 19.2803 23.0001ZM3.81589 1.15833C2.2092 1.15833 1.00418 2.44898 1.00418 3.93819V19.1281C1.00418 20.7166 2.30962 21.908 3.81589 21.908H19.1799C20.7866 21.908 21.9916 20.6173 21.9916 19.1281V3.93819C21.9916 2.3497 20.6862 1.15833 19.1799 1.15833H3.81589Z" fill="white"/>
</g>
<defs>
<clipPath id="clip0_322_89">
<rect width="23" height="22.8345" fill="white" transform="translate(0 0.165527)"/>
</clipPath>
</defs>
</svg>
