<svg width="30" height="30" viewBox="0 0 30 30" fill="none" xmlns="http://www.w3.org/2000/svg">
<path d="M25.6066 4.39342C22.7735 1.56023 19.0066 0 15 0C10.9934 0 7.22654 1.56023 4.39342 4.39342C1.56023 7.22648 0 10.9934 0 15C0 19.0066 1.56023 22.7735 4.39342 25.6066C7.22654 28.4398 10.9934 30 15 30C19.0066 30 22.7735 28.4398 25.6066 25.6066C28.4398 22.7735 30 19.0066 30 15C30 10.9934 28.4398 7.22648 25.6066 4.39342ZM15 28.7234C7.43285 28.7234 1.27658 22.5671 1.27658 15C1.27658 7.43291 7.43285 1.27658 15 1.27658C22.5671 1.27658 28.7234 7.43291 28.7234 15C28.7234 22.5671 22.5671 28.7234 15 28.7234Z" fill="white"/>
<path d="M25.8092 8.83508C25.8003 8.81528 25.7904 8.79576 25.7793 8.7766C25.603 8.47145 25.2128 8.36674 24.9073 8.54299L23.0337 9.62469C22.7284 9.80094 22.6237 10.1913 22.8001 10.4966C22.9184 10.7014 23.1328 10.8158 23.3535 10.8158C23.4618 10.8158 23.5714 10.7882 23.672 10.7302L24.9748 9.97807C25.6054 11.2271 25.9949 12.5875 26.1227 13.9831C23.6149 13.3835 16.8148 11.7879 15.5668 11.8089C14.7145 11.8238 13.9189 12.1696 13.3267 12.7829C12.7345 13.3961 12.4166 14.2032 12.4315 15.0556C12.4619 16.7963 13.8875 18.1915 15.6217 18.1914C15.6404 18.1914 15.6594 18.1912 15.6782 18.1909C16.927 18.169 23.6637 16.3374 26.1501 15.6501C26.0611 17.1736 25.6605 18.6636 24.9748 20.0219L23.6719 19.2697C23.3666 19.0934 22.9762 19.1981 22.8 19.5034C22.6237 19.8086 22.7283 20.199 23.0336 20.3753L24.9073 21.457C25.0078 21.515 25.1175 21.5426 25.2258 21.5426C25.4464 21.5426 25.6609 21.4282 25.7792 21.2234C25.7902 21.2042 25.8002 21.1848 25.8091 21.165C26.8802 19.2938 27.4468 17.1639 27.4468 15C27.4468 12.8362 26.8802 10.7062 25.8092 8.83508ZM15.6559 16.9145C14.5986 16.9334 13.7263 16.089 13.7078 15.0333C13.6989 14.5219 13.8897 14.0376 14.245 13.6697C14.6003 13.3017 15.0776 13.0942 15.5891 13.0853C15.595 13.0852 15.601 13.0852 15.6071 13.0852C16.4415 13.0852 20.6174 14.0001 24.2427 14.8495C20.6223 15.8321 16.4458 16.9007 15.6559 16.9145Z" fill="white"/>
<path d="M15 5.99326C15.3525 5.99326 15.6383 5.7075 15.6383 5.35494V3.19148C15.6383 2.83892 15.3525 2.55316 15 2.55316C14.6476 2.55316 14.3617 2.83892 14.3617 3.19148V5.35494C14.3617 5.70744 14.6476 5.99326 15 5.99326Z" fill="white"/>
<path d="M5.99338 15C5.99338 14.6475 5.70756 14.3617 5.35506 14.3617H3.19154C2.8391 14.3617 2.55322 14.6475 2.55322 15C2.55322 15.3526 2.83904 15.6383 3.19154 15.6383H5.35506C5.7075 15.6383 5.99338 15.3526 5.99338 15Z" fill="white"/>
<path d="M6.32804 19.2698L4.45439 20.3515C4.14912 20.5277 4.04447 20.9181 4.22078 21.2234C4.33908 21.4282 4.55353 21.5426 4.77419 21.5426C4.88248 21.5426 4.99222 21.515 5.09271 21.457L6.96636 20.3753C7.27164 20.1991 7.37628 19.8087 7.19998 19.5034C7.02367 19.1981 6.63337 19.0935 6.32804 19.2698Z" fill="white"/>
<path d="M9.64846 4.45438C9.47216 4.14916 9.08192 4.04445 8.77653 4.22076C8.47126 4.39701 8.36661 4.78736 8.54292 5.0927L9.62462 6.96629C9.74292 7.17108 9.95737 7.28551 10.178 7.28551C10.2863 7.28551 10.3961 7.25791 10.4965 7.1999C10.8018 7.02365 10.9065 6.6333 10.7302 6.32797L9.64846 4.45438Z" fill="white"/>
<path d="M6.96636 9.62472L5.09271 8.54297C4.78726 8.36666 4.39697 8.47137 4.22078 8.77658C4.04447 9.08185 4.14912 9.47226 4.45439 9.64851L6.32804 10.7302C6.42859 10.7883 6.53828 10.8158 6.64656 10.8158C6.86716 10.8158 7.08173 10.7014 7.19998 10.4966C7.37628 10.1913 7.27164 9.80092 6.96636 9.62472Z" fill="white"/>
<path d="M19.5034 7.19985C19.6039 7.25786 19.7136 7.28546 19.8219 7.28546C20.0425 7.28546 20.257 7.17102 20.3753 6.96624L21.457 5.09265C21.6333 4.78737 21.5286 4.39696 21.2234 4.22071C20.918 4.04441 20.5277 4.14906 20.3514 4.45433L19.2697 6.32792C19.0934 6.63325 19.198 7.0236 19.5034 7.19985Z" fill="white"/>
<path d="M18.3192 22.3337H13.9894C13.637 22.3337 13.3511 22.6194 13.3511 22.972C13.3511 23.3246 13.6369 23.6103 13.9894 23.6103H18.3192C18.6717 23.6103 18.9575 23.3246 18.9575 22.972C18.9575 22.6194 18.6716 22.3337 18.3192 22.3337Z" fill="white"/>
<path d="M11.7447 22.3337H11.6809C11.3285 22.3337 11.0426 22.6194 11.0426 22.972C11.0426 23.3246 11.3284 23.6103 11.6809 23.6103H11.7447C12.0972 23.6103 12.3831 23.3246 12.3831 22.972C12.3831 22.6194 12.0972 22.3337 11.7447 22.3337Z" fill="white"/>
</svg>
