<svg width="30" height="30" viewBox="0 0 30 30" fill="none" xmlns="http://www.w3.org/2000/svg">
<path d="M20.3534 12.1467L18.8534 10.6467C18.6579 10.4512 18.3419 10.4512 18.1465 10.6467L13 15.7931L11.3536 14.1467C11.1581 13.9511 10.8421 13.9511 10.6466 14.1467L9.14664 15.6466C8.95112 15.8421 8.95112 16.1582 9.14664 16.3536L12.6466 19.8535C12.7441 19.9516 12.8721 20 13 20C13.1281 20 13.256 19.951 13.3535 19.8535L20.3534 12.8537C20.5489 12.6582 20.5489 12.3422 20.3534 12.1467ZM13 18.7931L10.2071 16.0001L11.0001 15.2071L12.6466 16.8536C12.8421 17.0491 13.1581 17.0491 13.3535 16.8536L18.5 11.7072L19.2929 12.5002L13 18.7931Z" fill="white"/>
<path d="M29.8837 17.6801L27.6507 15.0001L29.8837 12.3202C30.0082 12.1712 30.0347 11.9637 29.9527 11.7882C29.8702 11.6127 29.6937 11.5002 29.4997 11.5002H22.9333L22.4948 8.4298C22.4598 8.1833 22.2488 8.00031 21.9998 8.00031H18.1809C17.5919 7.50931 15.3199 5.61636 15.3199 5.61636C15.1344 5.46138 14.8654 5.46138 14.6799 5.61636L11.8189 8.00031H7.99999C7.75098 8.00031 7.54051 8.1833 7.505 8.42933L7.0665 11.5003H0.500255C0.306254 11.5003 0.129773 11.6128 0.047275 11.7883C-0.0352235 11.9643 -0.00821226 12.1718 0.116297 12.3202L2.34926 15.0002L0.116297 17.6802C-0.00821226 17.8292 -0.0346961 18.0366 0.047275 18.2121C0.129773 18.3881 0.306254 18.5001 0.500255 18.5001H7.06661C7.20009 19.4326 7.50559 21.5711 7.50559 21.5711C7.54057 21.8176 7.75156 22.0001 8.00005 22.0001H11.819L14.68 24.384C14.773 24.4616 14.8864 24.5 14.9999 24.5C15.1134 24.5 15.2275 24.4616 15.3199 24.384L18.1803 22.0001C18.9573 22.0001 22.0008 22.0021 21.9998 22.0001C22.2488 22.0001 22.4592 21.8171 22.4948 21.5711C22.4948 21.5711 22.8003 19.4326 22.9337 18.5001H29.4996C29.6936 18.5001 29.8701 18.3876 29.9526 18.2121C30.0352 18.0361 30.0082 17.8286 29.8837 17.6801ZM1.56775 17.5001L3.38424 15.3202C3.53875 15.1347 3.53875 14.8652 3.38424 14.6802L1.56775 12.5002H6.43264L4.61615 14.6801C4.46164 14.8656 4.46164 15.1351 4.61615 15.3201L6.43264 17.5H1.56775V17.5001ZM22.1164 17.6796C22.0919 17.709 22.0704 17.7416 22.0534 17.7761C22.0184 17.8461 22.0169 17.8491 21.5669 21C17.8825 21 17.8789 21.002 17.7765 21.053C17.742 21.0706 17.7095 21.0915 17.68 21.116L15 23.349L12.32 21.116C12.2306 21.041 12.117 21 12.0001 21H8.43364C7.98365 17.8491 7.98212 17.8461 7.94714 17.7761C7.92962 17.7416 7.90865 17.7091 7.88416 17.6796L5.65119 15.0001L7.88416 12.3202C7.94369 12.2487 7.98218 12.1627 7.99513 12.0707L8.43364 9.00025H12.0001C12.1171 9.00025 12.23 8.95924 12.32 8.88424L15 6.65128C17.724 8.92121 17.726 8.92221 17.7765 8.94776C17.846 8.98227 17.9225 9.00025 17.9999 9.00025H21.5664L22.0049 12.0712C22.0179 12.1632 22.0564 12.2492 22.1158 12.3207L24.3488 15.0001L22.1164 17.6796ZM23.5673 17.5001L25.3838 15.3202C25.5383 15.1347 25.5383 14.8652 25.3838 14.6802L23.5673 12.5002H28.4322L26.6157 14.6802C26.4612 14.8657 26.4612 15.1351 26.6157 15.3202L28.4322 17.5001H23.5673Z" fill="white"/>
</svg>
