<svg width="30" height="30" viewBox="0 0 30 30" fill="none" xmlns="http://www.w3.org/2000/svg">
<path d="M18.5 7C18.5 6.7 18.3 6.5 18 6.5H15C14.7 6.5 14.5 6.7 14.5 7V8C13.55 7.15 11.85 6 9.5 6H8.5C7.65 6 7 6.65 7 7.5H1.75C0.7 7.5 0 8 0 8.75V9.75C0 10.15 0.2 10.55 0.5 10.85C0.2 11.05 0 11.4 0 11.75V12.75C0 13.15 0.2 13.55 0.5 13.85C0.2 14.05 0 14.4 0 14.75V15.75C0 16.15 0.2 16.55 0.5 16.9C0.2 17.15 0 17.55 0 18V19C0 19.85 0.65 20.5 1.5 20.5H8H14.5V21C14.5 21.3 14.7 21.5 15 21.5H18C18.3 21.5 18.5 21.3 18.5 21V20H30V19H18.5V8.5H30V7.5H18.5V7ZM8.5 7H9.5C9.8 7 10 7.2 10 7.5V14C10 14.3 9.8 14.5 9.5 14.5H8.5C8.2 14.5 8 14.3 8 14V8.5V7.5C8 7.2 8.2 7 8.5 7ZM8.5 15.75C8.5 16.15 8.35 16.5 8.25 16.5H8H1.75C1.5 16.5 1 16 1 15.75V14.75C1 14.65 1.35 14.5 1.75 14.5H6H7.1C7.3 15.1 7.85 15.5 8.5 15.5V15.75ZM1 9.75V8.75C1 8.65 1.35 8.5 1.75 8.5H7V10.5H6H1.75C1.5 10.5 1 10 1 9.75ZM1 12.75V11.75C1 11.65 1.35 11.5 1.75 11.5H6H7V13.5H6H1.75C1.5 13.5 1 13 1 12.75ZM1.5 19.5C1.2 19.5 1 19.3 1 19V18C1 17.7 1.2 17.5 1.5 17.5H1.75H8C8.3 17.5 8.5 17.7 8.5 18V19C8.5 19.3 8.3 19.5 8 19.5H1.5ZM9.4 19.5C9.45 19.35 9.5 19.2 9.5 19V18C9.5 17.6 9.35 17.3 9.15 17.05C9.35 16.75 9.5 16.3 9.5 15.75V15.5C10.35 15.5 11 14.85 11 14V7.5C11 7.4 11 7.3 10.95 7.2C12.9 7.7 14.15 9 14.5 9.4V19.5H9.4ZM17.5 20.5H15.5V20V9.25V7.5H17.5V8V19.5V20.5Z" fill="white"/>
<path d="M21 16.5H19.5V17.5H21V16.5Z" fill="white"/>
<path d="M23.5 16.5H22V17.5H23.5V16.5Z" fill="white"/>
<path d="M29.5 23.5H0.5C0.2 23.5 0 23.7 0 24V29.5C0 29.8 0.2 30 0.5 30H29.5C29.8 30 30 29.8 30 29.5V24C30 23.7 29.8 23.5 29.5 23.5ZM29 29H25.5V26.5H24.5V29H20.5V26.5H19.5V29H15.5V26.5H14.5V29H10.5V26.5H9.5V29H5.5V26.5H4.5V29H1V24.5H29V29Z" fill="white"/>
<path d="M0.5 4H3.5H25C25.05 4 25.05 4 25.1 4C25.2 4 25.25 3.95 25.3 3.9L29.65 2.45C29.85 2.4 30 2.2 30 2C30 1.8 29.85 1.6 29.65 1.55L25.3 0.1C25.25 0.05 25.15 0 25.05 0H25H3.5H0.5C0.2 0 0 0.2 0 0.5V3.5C0 3.8 0.2 4 0.5 4ZM25.5 2.8V1.2L27.9 2L25.5 2.8ZM24.5 1.5H5.5V2.5H24.5V3H4V1H24.5V1.5ZM1 1H3V3H1V1Z" fill="white"/>
</svg>
