<svg width="30" height="30" viewBox="0 0 30 30" fill="none" xmlns="http://www.w3.org/2000/svg">
<path d="M29.9504 9.37087C29.5125 4.55098 26.1009 1.05404 21.8314 1.05404C18.987 1.05404 16.3827 2.58471 14.9172 5.03793C13.465 2.55298 10.9673 1.05347 8.16853 1.05347C3.89963 1.05347 0.487514 4.5504 0.0501807 9.37029C0.0155633 9.58319 -0.126368 10.7036 0.305195 12.5309C0.927154 15.1664 2.36378 17.5636 4.4587 19.4618L14.9103 28.9464L25.5413 19.4624C27.6362 17.5637 29.0728 15.167 29.6948 12.5309C30.1263 10.7042 29.9844 9.58377 29.9504 9.37087ZM28.5714 12.2666C28.0037 14.6737 26.6877 16.8667 24.7693 18.6045L14.9172 27.3944L5.23413 18.6068C3.31229 16.8655 1.99683 14.6731 1.42853 12.266C1.02004 10.5369 1.18794 9.56011 1.18852 9.55376L1.19717 9.49549C1.57219 5.27275 4.50371 2.20738 8.16853 2.20738C10.8727 2.20738 13.2533 3.86901 14.3829 6.54321L14.9143 7.8027L15.4457 6.54321C16.5575 3.90998 19.0638 2.20796 21.832 2.20796C25.4963 2.20796 28.4284 5.27333 28.8109 9.55088C28.812 9.56011 28.9799 10.5375 28.5714 12.2666Z" fill="white"/>
</svg>
