<svg width="30" height="30" viewBox="0 0 30 30" fill="none" xmlns="http://www.w3.org/2000/svg">
<path d="M27.338 10.6796C25.6693 9.39872 23.4599 8.69329 21.1166 8.69329C19.6997 8.69329 18.332 8.95166 17.103 9.4387C16.4887 8.26949 15.464 7.23407 14.1604 6.48057C12.6256 5.59337 10.8008 5.12445 8.88349 5.12445C6.54012 5.12445 4.33071 5.82988 2.6621 7.11076C0.945367 8.42843 0 10.1954 0 12.0861C0 13.789 0.778959 15.4096 2.20016 16.6786L2.22435 20.8268C2.22557 21.0433 2.33541 21.2534 2.52808 21.3521C2.75682 21.4694 2.97496 21.4413 3.13494 21.3579L7.43829 18.9561C7.91541 19.0171 8.40043 19.048 8.88349 19.048C8.88361 19.048 8.88373 19.048 8.88386 19.048C10.2828 19.048 11.6556 18.7912 12.8919 18.3026C13.3431 19.1669 14.0182 19.9574 14.8951 20.6306C16.5637 21.9115 18.7732 22.6169 21.1166 22.6169C21.602 22.6169 22.0897 22.5856 22.5694 22.524L26.8781 24.7949C27.1226 24.9194 27.3039 24.889 27.4783 24.7783C27.6588 24.6638 27.7745 24.4707 27.7758 24.2568L27.8 20.2475C29.221 18.9787 30 17.3579 30 15.6551C30 13.7644 29.0546 11.9975 27.338 10.6796ZM8.8838 17.8234C8.88367 17.8234 8.88343 17.8234 8.88343 17.8234C8.38488 17.8234 7.884 17.7865 7.39482 17.7141C7.21965 17.6882 7.05092 17.739 6.92259 17.8415L3.44265 19.7838L3.42306 16.4051C3.42331 16.3929 3.42306 16.3805 3.42245 16.3682C3.41443 16.1961 3.33441 16.0354 3.2018 15.9254C1.9268 14.8674 1.22449 13.5038 1.22449 12.0861C1.22449 8.92258 4.66035 6.34888 8.88349 6.34888C12.0123 6.34888 14.8411 7.81043 15.9948 9.96125C15.6077 10.1755 15.2397 10.4151 14.8951 10.6796C13.1784 11.9974 12.233 13.7644 12.233 15.6551C12.233 16.1696 12.3037 16.6749 12.4401 17.1646C11.3472 17.5965 10.1291 17.8234 8.8838 17.8234ZM26.7981 19.4944C26.6657 19.6044 26.5856 19.7652 26.5776 19.9372C26.577 19.9483 26.5769 19.9594 26.5769 19.9705L26.5573 23.2417L23.0662 21.4018C22.9393 21.305 22.7754 21.2578 22.605 21.283C22.1157 21.3556 21.6149 21.3924 21.1164 21.3924C17.658 21.3924 14.7282 19.6663 13.7803 17.3037C13.7764 17.2922 13.7713 17.281 13.7666 17.2696C13.5658 16.7572 13.4574 16.2155 13.4574 15.6551C13.4574 13.6195 14.8801 11.8284 17.0196 10.8097C17.0211 10.8091 17.0227 10.8087 17.0242 10.8081C17.0481 10.7987 17.0709 10.7874 17.093 10.7754C18.2629 10.232 19.6416 9.91778 21.1164 9.91778C25.3396 9.91778 28.7754 12.4915 28.7754 15.6551C28.7755 17.0727 28.0732 18.4363 26.7981 19.4944Z" fill="white"/>
<path d="M24.7133 13.6038H17.5197C17.1816 13.6038 16.9075 13.8779 16.9075 14.2161C16.9075 14.5542 17.1816 14.8283 17.5197 14.8283H24.7133C25.0513 14.8283 25.3255 14.5542 25.3255 14.2161C25.3255 13.8779 25.0514 13.6038 24.7133 13.6038Z" fill="white"/>
<path d="M24.7133 16.3757H17.5197C17.1816 16.3757 16.9075 16.6498 16.9075 16.9879C16.9075 17.326 17.1816 17.6001 17.5197 17.6001H24.7133C25.0513 17.6001 25.3255 17.326 25.3255 16.9879C25.3255 16.6498 25.0514 16.3757 24.7133 16.3757Z" fill="white"/>
<path d="M27.338 10.6796C25.6693 9.39872 23.4599 8.69329 21.1166 8.69329C19.6997 8.69329 18.332 8.95166 17.103 9.4387C16.4887 8.26949 15.464 7.23407 14.1604 6.48057C12.6256 5.59337 10.8008 5.12445 8.88349 5.12445C6.54012 5.12445 4.33071 5.82988 2.6621 7.11076C0.945367 8.42843 0 10.1954 0 12.0861C0 13.789 0.778959 15.4096 2.20016 16.6786L2.22435 20.8268C2.22557 21.0433 2.33541 21.2534 2.52808 21.3521C2.75682 21.4694 2.97496 21.4413 3.13494 21.3579L7.43829 18.9561C7.91541 19.0171 8.40043 19.048 8.88349 19.048C8.88361 19.048 8.88373 19.048 8.88386 19.048C10.2828 19.048 11.6556 18.7912 12.8919 18.3026C13.3431 19.1669 14.0182 19.9574 14.8951 20.6306C16.5637 21.9115 18.7732 22.6169 21.1166 22.6169C21.602 22.6169 22.0897 22.5856 22.5694 22.524L26.8781 24.7949C27.1226 24.9194 27.3039 24.889 27.4783 24.7783C27.6588 24.6638 27.7745 24.4707 27.7758 24.2568L27.8 20.2475C29.221 18.9787 30 17.3579 30 15.6551C30 13.7644 29.0546 11.9975 27.338 10.6796ZM8.8838 17.8234C8.88367 17.8234 8.88343 17.8234 8.88343 17.8234C8.38488 17.8234 7.884 17.7865 7.39482 17.7141C7.21965 17.6882 7.05092 17.739 6.92259 17.8415L3.44265 19.7838L3.42306 16.4051C3.42331 16.3929 3.42306 16.3805 3.42245 16.3682C3.41443 16.1961 3.33441 16.0354 3.2018 15.9254C1.9268 14.8674 1.22449 13.5038 1.22449 12.0861C1.22449 8.92258 4.66035 6.34888 8.88349 6.34888C12.0123 6.34888 14.8411 7.81043 15.9948 9.96125C15.6077 10.1755 15.2397 10.4151 14.8951 10.6796C13.1784 11.9974 12.233 13.7644 12.233 15.6551C12.233 16.1696 12.3037 16.6749 12.4401 17.1646C11.3472 17.5965 10.1291 17.8234 8.8838 17.8234ZM26.7981 19.4944C26.6657 19.6044 26.5856 19.7652 26.5776 19.9372C26.577 19.9483 26.5769 19.9594 26.5769 19.9705L26.5573 23.2417L23.0662 21.4018C22.9393 21.305 22.7754 21.2578 22.605 21.283C22.1157 21.3556 21.6149 21.3924 21.1164 21.3924C17.658 21.3924 14.7282 19.6663 13.7803 17.3037C13.7764 17.2922 13.7713 17.281 13.7666 17.2696C13.5658 16.7572 13.4574 16.2155 13.4574 15.6551C13.4574 12.4296 16.9471 9.91778 21.1164 9.91778C25.2858 9.91778 28.7755 12.4915 28.7755 15.6551C28.7755 17.0727 28.0732 18.4363 26.7981 19.4944Z" fill="white"/>
<path d="M24.7133 13.6038H17.5197C17.1816 13.6038 16.9075 13.8779 16.9075 14.2161C16.9075 14.5542 17.1816 14.8283 17.5197 14.8283H24.7133C25.0513 14.8283 25.3255 14.5542 25.3255 14.2161C25.3255 13.8779 25.0514 13.6038 24.7133 13.6038Z" fill="white"/>
<path d="M24.7133 16.3757H17.5197C17.1816 16.3757 16.9075 16.6498 16.9075 16.9879C16.9075 17.326 17.1816 17.6001 17.5197 17.6001H24.7133C25.0513 17.6001 25.3255 17.326 25.3255 16.9879C25.3255 16.6498 25.0514 16.3757 24.7133 16.3757Z" fill="white"/>
</svg>
