<svg width="20" height="20" viewBox="0 0 20 20" fill="none" xmlns="http://www.w3.org/2000/svg">
<path d="M17.7469 8.58317L16.2326 6.55399L17.0457 4.15614C17.1256 3.92052 17.0648 3.65989 16.8889 3.48396C16.7129 3.30802 16.4523 3.2472 16.2167 3.32712L13.8189 4.14021L11.7895 2.62591C11.5902 2.47712 11.3236 2.45435 11.1018 2.56735C10.8801 2.68036 10.7418 2.90935 10.745 3.15817L10.7773 5.69001L8.71004 7.15196C8.50688 7.29563 8.40289 7.54216 8.4418 7.78798C8.48071 8.03372 8.65582 8.23606 8.8934 8.30997L10.6061 8.84239L0.564182 18.8841C0.308908 19.1394 0.308908 19.5533 0.564182 19.8086C0.819455 20.0639 1.23336 20.0639 1.48863 19.8086L11.5306 9.76673L12.0629 11.4793C12.1478 11.7522 12.4004 11.939 12.6873 11.939C12.8973 11.939 13.0972 11.8377 13.2209 11.6628L14.6829 9.59548L17.2147 9.62782C17.4616 9.62981 17.6925 9.49259 17.8055 9.27095C17.9185 9.04931 17.8957 8.78263 17.7469 8.58317Z" fill="white"/>
<path d="M6.77239 2.62797L6.25055 1.67383L5.72875 2.62797L4.77461 3.14977L5.72875 3.67164L6.25055 4.62574L6.77239 3.67164L7.72653 3.14977L6.77239 2.62797Z" fill="white"/>
<path d="M14.1776 15.0191L13.7555 14.2473L13.3334 15.0191L12.5616 15.4412L13.3334 15.8633L13.7555 16.635L14.1776 15.8633L14.9493 15.4412L14.1776 15.0191Z" fill="white"/>
<path d="M14.7712 0.771758L14.3491 0L13.927 0.771758L13.1552 1.19387L13.927 1.61598L14.3491 2.38773L14.7712 1.61598L15.543 1.19387L14.7712 0.771758Z" fill="white"/>
<path d="M19.1654 5.56686L18.9128 5.10498L18.6602 5.56686L18.1983 5.81943L18.6602 6.07205L18.9128 6.53393L19.1654 6.07205L19.6273 5.81943L19.1654 5.56686Z" fill="white"/>
<path d="M19.2432 11.489L18.1983 11.795L17.1534 11.489L17.4595 12.5339L17.1534 13.5788L18.1983 13.2728L19.2432 13.5788L18.9371 12.5339L19.2432 11.489Z" fill="white"/>
</svg>
