<svg width="8" height="12" viewBox="0 0 8 12" fill="none" xmlns="http://www.w3.org/2000/svg">
<path d="M7.64057 5.22239L1.64032 0.258147C1.43634 0.0906356 1.17381 0.0102001 0.910223 0.0344547C0.646635 0.0587093 0.40347 0.185677 0.233976 0.387555C0.0644829 0.589432 -0.0175251 0.849765 0.00591088 1.11155C0.0293468 1.37333 0.156317 1.61522 0.359016 1.78425L5.43735 5.98548L0.359016 10.1867C0.155536 10.3555 0.027864 10.5976 0.00404708 10.8598C-0.0197698 11.122 0.0622158 11.3828 0.231994 11.585C0.401772 11.7873 0.645458 11.9143 0.909521 11.9383C1.17358 11.9622 1.43643 11.8811 1.64032 11.7128L7.64057 6.7485C7.75308 6.65518 7.84358 6.53847 7.90568 6.40662C7.96778 6.27477 7.99997 6.131 7.99997 5.98544C7.99997 5.83989 7.96778 5.69611 7.90568 5.56427C7.84358 5.43242 7.75308 5.31571 7.64057 5.22239Z" fill="white"/>
</svg>
